<?xml version="1.0" standalone="no"?>
<!DOCTYPE svg PUBLIC "-//W3C//DTD SVG 20010904//EN"
 "http://www.w3.org/TR/2001/REC-SVG-20010904/DTD/svg10.dtd">
<svg version="1.0" xmlns="http://www.w3.org/2000/svg"
 width="2048.000000pt" height="696.000000pt" viewBox="0 0 2048.000000 696.000000"
 preserveAspectRatio="xMidYMid meet">

<g transform="translate(0.000000,696.000000) scale(0.100000,-0.100000)"
fill="#000000" stroke="none">
<path d="M3884 5556 c-17 -8 -34 -21 -38 -31 -3 -9 -6 -70 -6 -135 0 -154 6
-163 114 -168 107 -6 183 5 208 30 18 18 19 31 16 153 -2 93 -7 138 -16 147
-19 19 -237 22 -278 4z"/>
<path d="M4423 5269 c-18 -5 -37 -19 -43 -30 -7 -13 -10 -79 -8 -184 3 -142 5
-167 21 -182 15 -15 40 -18 175 -21 91 -2 169 1 184 7 37 14 48 61 47 206 0
148 -11 186 -59 202 -41 14 -270 15 -317 2z"/>
<path d="M3283 4944 c-34 -7 -79 -21 -100 -30 -49 -23 -131 -106 -162 -164
-32 -60 -89 -161 -101 -180 -6 -8 -51 -87 -102 -175 -112 -197 -139 -243 -213
-369 -49 -83 -59 -107 -59 -146 0 -50 0 -50 174 -345 42 -71 88 -150 102 -175
14 -25 65 -112 113 -195 98 -169 147 -253 206 -357 23 -40 50 -85 60 -100 11
-15 19 -30 19 -32 0 -3 30 -56 66 -118 37 -62 88 -151 115 -198 27 -47 54 -92
59 -100 6 -8 26 -44 45 -80 20 -36 45 -81 57 -100 23 -38 111 -190 149 -257
13 -22 39 -66 57 -97 50 -87 47 -91 -83 -102 -82 -8 -119 6 -158 58 -13 18
-73 119 -132 223 -104 183 -246 429 -325 565 -21 36 -68 119 -105 185 -63 111
-80 134 -96 135 -6 0 -206 -343 -307 -523 -30 -53 -25 -86 25 -170 21 -36 47
-80 57 -98 11 -19 75 -131 144 -249 68 -118 142 -246 164 -285 22 -38 62 -108
89 -155 26 -47 71 -125 99 -175 28 -49 61 -103 75 -120 l25 -30 795 -3 c437
-1 795 0 795 3 0 10 -29 63 -155 283 -43 76 -187 324 -217 374 -20 35 -53 92
-72 128 -20 36 -40 72 -46 80 -20 32 -100 169 -142 245 -25 44 -61 108 -82
143 -56 96 -92 159 -238 412 -74 129 -177 307 -228 395 -50 88 -124 216 -163
285 -38 69 -80 141 -92 160 -59 92 -144 251 -151 281 -16 74 -3 113 69 194
l44 49 28 -44 c25 -40 216 -367 312 -535 19 -33 38 -67 43 -75 26 -42 108
-185 205 -355 59 -104 120 -210 135 -235 30 -50 65 -111 197 -340 50 -85 101
-175 115 -200 14 -25 48 -83 75 -130 44 -76 260 -451 366 -635 22 -38 48 -82
58 -97 11 -15 19 -29 19 -32 0 -17 176 -306 201 -329 27 -25 36 -27 113 -27
75 0 90 3 153 35 83 42 144 103 181 183 21 47 26 72 26 142 1 81 -1 89 -46
180 -26 52 -65 127 -88 165 -57 95 -89 150 -301 515 -100 173 -199 344 -220
380 -21 36 -52 90 -69 120 -17 30 -49 88 -73 127 -56 96 -164 284 -203 353
-28 49 -65 114 -136 237 -12 21 -38 67 -58 103 -20 36 -67 119 -105 185 -37
66 -101 181 -143 255 -95 172 -151 251 -213 300 -79 63 -125 72 -319 64 -146
-6 -167 -5 -179 10 -10 12 -14 77 -15 298 0 156 -4 288 -8 295 -16 24 -62 30
-125 17z"/>
<path d="M6725 2691 c-232 -51 -371 -232 -335 -438 32 -185 137 -263 460 -339
130 -30 224 -75 251 -117 16 -25 19 -45 16 -91 -3 -56 -6 -62 -46 -97 -117
-104 -378 -68 -558 78 l-41 34 -66 -78 c-36 -43 -66 -83 -66 -90 0 -17 120
-99 202 -138 207 -98 498 -95 646 7 113 78 162 174 162 317 0 78 -3 95 -31
149 -50 102 -146 166 -315 212 -246 68 -307 91 -346 130 -35 34 -38 42 -38 92
0 104 67 160 198 166 90 5 205 -28 302 -87 57 -35 67 -38 81 -25 30 27 111
152 105 162 -13 22 -154 96 -234 123 -70 24 -109 31 -197 34 -60 2 -128 0
-150 -4z"/>
<path d="M7925 2690 c-61 -13 -158 -54 -224 -94 -265 -161 -384 -512 -276
-811 75 -205 228 -351 437 -417 97 -31 319 -33 413 -5 235 71 417 262 471 493
23 98 20 249 -5 347 -57 217 -215 386 -431 463 -64 23 -94 27 -210 30 -74 2
-153 -1 -175 -6z m277 -219 c137 -47 213 -114 276 -241 l37 -75 0 -135 0 -135
-39 -78 c-104 -212 -330 -307 -550 -232 -96 33 -196 123 -244 220 -105 211
-49 474 130 611 103 78 271 106 390 65z"/>
<path d="M13040 2693 c-57 -11 -170 -57 -233 -95 -133 -80 -233 -205 -283
-355 -125 -371 70 -759 440 -876 59 -18 94 -22 211 -22 117 0 152 4 211 22
214 68 382 235 451 450 21 65 25 99 26 203 1 117 -1 131 -32 220 -72 208 -214
352 -421 426 -65 24 -93 28 -210 30 -74 1 -146 0 -160 -3z m261 -222 c136 -46
217 -117 277 -240 l37 -76 0 -136 0 -136 -44 -86 c-63 -126 -150 -199 -276
-231 -203 -54 -412 38 -508 222 -142 274 -16 598 268 687 62 20 183 18 246 -4z"/>
<path d="M15573 2690 c-71 -15 -186 -75 -231 -120 -60 -62 -92 -133 -99 -222
-18 -241 93 -344 473 -438 193 -48 259 -98 259 -194 -1 -68 -37 -117 -103
-143 -65 -25 -226 -24 -301 1 -57 20 -166 81 -217 121 l-31 25 -67 -80 c-77
-93 -78 -87 18 -154 135 -94 277 -138 451 -140 142 -1 231 21 317 77 143 95
198 260 145 441 -6 23 -33 62 -66 97 -64 67 -152 111 -291 148 -237 63 -307
93 -340 146 -46 74 -14 166 73 209 110 55 281 23 440 -82 l39 -26 17 21 c9 12
27 38 41 58 14 20 35 49 48 65 l23 29 -33 24 c-56 42 -160 94 -233 117 -79 24
-261 35 -332 20z"/>
<path d="M8860 2020 l0 -660 465 0 466 0 -3 103 -3 102 -347 3 -348 2 0 555 0
555 -115 0 -115 0 0 -660z"/>
<path d="M9820 2303 c0 -208 5 -419 10 -469 34 -320 231 -494 558 -494 224 1
372 71 476 227 34 51 74 175 86 263 4 36 9 242 9 458 l1 392 -119 0 -120 0 -3
-447 c-4 -509 -4 -506 -84 -589 -67 -69 -119 -88 -234 -88 -52 0 -114 5 -137
12 -63 19 -147 100 -175 170 -23 56 -23 64 -26 500 l-3 442 -119 0 -120 0 0
-377z"/>
<path d="M11000 2570 l0 -110 210 0 210 0 0 -550 0 -550 115 0 115 0 0 550 0
550 208 2 207 3 3 108 3 107 -536 0 -535 0 0 -110z"/>
<path d="M12142 2023 l3 -658 118 -3 117 -3 0 661 0 660 -120 0 -120 0 2 -657z"/>
<path d="M13970 2020 l0 -660 115 0 115 0 2 465 3 466 67 -88 c36 -49 96 -126
132 -173 36 -47 97 -125 135 -175 38 -49 105 -135 148 -190 43 -55 87 -112 98
-126 11 -15 46 -61 78 -103 l59 -76 99 0 99 0 0 660 0 660 -115 0 -115 0 0
-450 c0 -356 -3 -448 -12 -444 -7 3 -38 40 -68 81 -30 42 -68 93 -85 113 -16
20 -41 52 -55 70 -14 18 -45 59 -70 90 -25 32 -92 119 -150 195 -58 75 -118
154 -135 174 -16 21 -41 53 -55 71 -14 19 -38 49 -54 67 l-28 33 -104 0 -104
0 0 -660z"/>
<path d="M19630 2664 c-36 -7 -106 -34 -155 -58 -339 -168 -470 -568 -299
-916 195 -397 742 -491 1082 -185 121 109 200 283 209 460 21 405 -279 718
-685 714 -48 0 -116 -7 -152 -15z m333 -231 c127 -60 219 -175 252 -314 92
-393 -274 -710 -622 -539 -268 132 -335 528 -126 751 97 104 186 141 333 136
82 -2 104 -7 163 -34z"/>
<path d="M16870 2005 l0 -655 115 0 115 0 0 209 0 208 193 6 c161 4 203 8 262
27 141 44 240 125 293 238 25 53 27 67 27 188 0 128 0 131 -34 197 -59 116
-176 201 -310 227 -30 5 -190 10 -357 10 l-304 0 0 -655z m634 430 c153 -56
197 -254 83 -374 -61 -64 -100 -74 -304 -79 l-183 -4 0 242 0 242 178 -4 c136
-4 188 -9 226 -23z"/>
<path d="M17970 2005 l0 -655 115 0 115 0 0 230 0 230 143 0 142 0 70 -100
c39 -55 107 -153 153 -217 46 -65 87 -124 91 -131 5 -9 41 -12 143 -10 l135 3
-174 245 c-167 235 -173 245 -151 254 149 58 229 136 268 262 62 201 -19 402
-197 493 -90 45 -146 51 -510 51 l-343 0 0 -655z m708 426 c45 -21 111 -78
112 -99 1 -4 5 -27 10 -52 20 -104 -31 -196 -133 -240 -47 -21 -72 -24 -259
-28 l-208 -5 0 228 0 227 213 -4 c196 -3 216 -6 265 -27z"/>
</g>
</svg>
