<?xml version="1.0" encoding="utf-8"?>
<!-- Generator: Adobe Illustrator 19.0.0, SVG Export Plug-In . SVG Version: 6.00 Build 0)  -->
<svg version="1.1" id="Layer_1" xmlns="http://www.w3.org/2000/svg" xmlns:xlink="http://www.w3.org/1999/xlink" x="0px" y="0px"
	 viewBox="0 0 180.3 60.8" style="enable-background:new 0 0 180.3 60.8;" xml:space="preserve">
<style type="text/css">
	.st0{fill:white; fill-rule:evenodd; clip-rule:evenodd;}
	.st1{fill:none; stroke:#fff; stroke-width:0.216; stroke-miterlimit:2.6131;}
</style>
<path class="st0" d="M71.8-66.7c-0.9-0.2-1.2-0.7-1-1.4c0.7,0.2,1.4,0.3,2.1,0.4C72.8-66.9,72.4-66.6,71.8-66.7 M135.2-21.4
	c-1.2-0.1-2.3,0.5-3,2.4c-0.7-1.2-1.5-1.9-2.3-2.5c7.1-2.3,3.8-5.7,5.9-11.9c0.7-0.6,0.3-1.1-0.4-1.6c-4.8-1.5-3.2-4.5-10.2-5.2
	c-0.9-0.2-1.8,0.2-2.7,0.7c0.1-0.7,0.1-1.4,0.2-2.1c1.4,1.3,2.1-0.2,3-0.9c0.7,0.5,1.4,0.3,2.1-0.1c0.6,1.5,1.5,2.2,2.9,1.4
	c0.3,1.5,1.1,2.4,3.2,2.2c0.4,1.5,1.5,2.1,3,2.1c-0.1,0.8,0.3,1.5,1.4,2c-1.1,1.4-1.5,2.8-0.1,4c-1.2,1.1-1.8,2.5-0.6,4
	c-0.8,1.3-1.9,2.6-0.9,3.5C136.2-22.9,135.6-22.4,135.2-21.4z M138.6-28.4c0-0.9,0.4-1.3,1.1-1.3c0,0.7,0,1.4,0,2.1
	C139-27.5,138.7-27.8,138.6-28.4z M136.4-40.3c-0.4-0.1-0.7,0.1-0.8,0.6c0.2,1.2,1.5,1,1.7,0.7c0.3-0.3,0.3-0.6,0-0.8
	C137.1-39.8,136.8-40,136.4-40.3z M139.5-38.3c-0.4-0.1-0.7,0.3-0.8,1c0.1,0.6,0.1,1.3,0.8,1.2c0.4,0,0.8,0.1,1-0.3
	c0.2-0.5,0.2-0.9,0-1.2C140.2-37.6,139.9-37.9,139.5-38.3z M139-32.6c0-0.8,0.3-1.1,0.9-1.1c0,0.6,0,1.2,0.1,1.8
	C139.4-31.9,139.1-32.1,139-32.6z M123.8-29.7c-0.2,0.4-0.6,0.7-0.8,1.1c0.5,0.1,1.1,0.2,1.6,0.5c2.3,0,1.8-2.1,0.4-2.3
	C124.4-30.4,124-30.1,123.8-29.7z M131.4-31.2c0.3-0.5,0.8-0.9,1-1.4c-0.6-0.1-1.4-0.3-2.1-0.6c-2.9,0-2.3,2.6-0.5,2.9
	C130.7-30.3,131.2-30.6,131.4-31.2z M123.2-31.6c-0.7,1.3-1.5,2.6-2.6,3.8c-0.4,0.2-0.8,0.2-0.5-0.3c1.2-1.6,2.2-3.7,2.5-6.5
	c-0.1-1.6-0.3-3.3,1.1-3.7c1.9-0.3,3.5,0.1,5,0.9c1.8,1.1,3.7,2.3,5.5,3.4c-0.8,0.3-1.7,0.1-2.5-0.1c-3.2-1-4,0.3-4.1,2.1
	c0.4,2.5,1.6,3,3.4,2.4c0.9-0.2,1.1-1.4,1.7-2.1c0.4-0.5,1-0.9,1.6-1.2c-0.3,5.1,1.2,9.5-5.4,10.3c-2-2.6-5.3-3.7-8.8-4.5
	c0.4-0.3,1.5-0.4,2.4-0.2c0.8,0.2,1.6,0.5,2.3,0.7C129-27.7,127-34.1,123.2-31.6z M110.8-67.9c0.1,0.5-0.3,0.7-0.9,0.8
	c-0.4-0.2-1-0.3-0.8-1c0-0.5,0-0.9,0.4-1.1c0.4-0.2,0.7-0.1,0.9,0.2C110.3-68.7,110.5-68.3,110.8-67.9z M106.2-66.9
	c-0.7,0-1-0.7-1.1-1.3c0.6,0,1.2,0,1.7-0.1C106.9-67.6,106.6-67,106.2-66.9z M102.8-65.8c-0.8,0-1.2-0.8-1.2-1.5
	c0.7,0,1.3,0,1.9-0.1C103.5-66.6,103.2-65.9,102.8-65.8z M102.3-61.7c-2.3,0.6-4.4,2-6,4.5c-0.6-0.7-1.1-1.3-1.7-2
	c1.6-0.8,1.7-2.1,1.5-3.4c0.7-0.1,1.2-0.7,1.6-1.3c2.3,0.8,2.7-0.4,3.4-1.3c2,1.2,2.8,0.2,3.5-0.9c1.6,1.3,2.6,0.5,3.6-0.5
	c0.3,1.1,1.3,1.1,2.5,0.8c-0.7,1.8,0.3,2.7,2,3.2c-0.1,1.8,0.6,3,2.2,3.5c-0.1,1.7,0.4,2.8,1.6,3.2c-0.4,1-0.5,1.9,0.3,2.5
	c-1.2,1-1.9,2.2-0.9,4.2c-0.8-0.1-1.4-0.2-2.2-0.3c1.3-1.7,1.6-3.3,1.2-5.1c-1.6-2.3-3.2-4.7-4.9-7c0.3-0.8,0.2-1.5-1.5-1.4
	C107-62.2,104.8-61.9,102.3-61.7z M103.3-50.9c0.1,0.4,0,1,0.1,1.4c0.4-0.3,0.9-0.6,1.5-0.7c1.6-1.6,0-2.9-1.2-2.1
	C103.3-51.9,103.1-51.4,103.3-50.9z M107.9-57.4c-0.1-0.5,0-1.3-0.1-1.8c-0.5,0.4-1.1,0.7-1.8,0.9c-2.1,2,0,3.6,1.5,2.7
	C107.9-56.2,108.1-56.8,107.9-57.4z M101.9-51.7c0.4,1.5,0.5,3.1,0.5,4.8c-0.2,0.4-0.4,0.7-0.6,0.1c-0.1-2.1-0.7-4.4-2.3-6.9
	c-1-1.2-2.3-2.4-1.5-3.6c1.2-1.6,2.6-2.3,4.1-2.8c2-0.4,4-0.7,6.1-1.1c-0.3,0.8-1.1,1.2-1.9,1.6c-2.9,1.4-2.6,3-1.6,4.5
	c1.9,1.3,3,0.7,3.9-0.5c0.6-0.8,0.6-1.7,0.2-2.7c0-0.7-0.1-1.5,0.2-2.2c1.2,1.7,2.5,3.5,3.7,5.2c1.5,1.4,1.4,3.4-0.7,6
	c-2.9-0.3-5.9,0.2-8.8,1.9c0.1-0.5,0.4-1,1.1-1.5c0.7-0.3,1.4-0.7,2.1-1C108.6-53.3,103-56.2,101.9-51.7z M91.5-54.8
	c2.4,2.9,5.7,6.4,6.9,10.3c-0.2-3-1.1-6.2-3.8-9.5c-1.7-1.7-2.9-3.7-4.6-5.1c-2.1,1.4-4.5,4-6.4,6.7c-1.7,1.8-2.1,4.7-1.9,8.1
	c-0.3-4,3.8-7.3,6.7-11C89.1-56.3,89.9-56.3,91.5-54.8z M96.3-38.5c-0.7-0.2-1.3-0.2-2,0.2c-0.4-1.9-1.6-2.6-4.3-1.3
	c-1.3-1.4-2.8-1.6-4.3,1c-0.9-0.6-1.8-0.4-2.9,1c-2.6-9.7,2.3-13,6.4-17C94.3-50.5,98.6-45.4,96.3-38.5z M109.4-27.4
	c1,0.2,0.9,1.3,1,2.1c2.2-1.3,3.9-3.2,5.1-5.2c0.9-3.6,1-7.5,0.5-11.5c-5.8-0.7-10.6,0-13.8,3c-0.6,0.9-1.1,1.8-1.7,2.7
	c0.2,0.3,0.3,0.7,0.8,0.5c0.6-0.2,1.1,0.3,1.4,1c0.1,0.3,0.3,0.5,0.7,0.4c2.6-0.4,2.8,1,3.1,2.3c-0.1,0.2-0.1,0.4,0.1,0.6
	c1.8-0.6,3.3,2.3,2.1,3.2C108.4-27.8,108.5-27.5,109.4-27.4z M114.9-44c-3.8-0.1-8.8,0.2-12.6,2.4c2.3-2,5.2-3.5,9.6-3.9
	c2.5,0.1,5.1,0,7.4,0.4c0.6,2.6,0.3,5.8-0.2,9.1c0,2.6-1.7,4.9-4.3,7.2c3-2.6,2.3-8,2.7-12.8C117.5-43,117.1-43.9,114.9-44z
	 M92.9-17.5c0.2,0.1,0.1,0.2,0.3,0.2c-0.4,0.5-0.5,0.8-0.9,1.3c-0.5,0.1-0.7,0.1-0.4-0.6C92.2-17,92.5-17.2,92.9-17.5z M86.3-17.5
	c-0.2,0.1-0.1,0.2-0.3,0.2c0.4,0.5,0.5,0.8,0.9,1.3c0.5,0.1,0.7,0.1,0.4-0.6C86.9-17,86.7-17.2,86.3-17.5z M89.1-19.7
	c0.2-0.1,0.2,0.1,0.4,0c0,0.6,0.1,0.9,0.1,1.6c-0.3,0.4-0.4,0.5-0.7-0.2C89-18.9,89.1-19.2,89.1-19.7z M100.6-22.9
	c-1.3,1.9-1.9,3.2-3.3,4.9c2.1-1.2,3.7-1.7,5.9-3c2.2-2.5,1.3-4.3,0.3-6.1c-3.8-3.3-5.3-2.2-6.6-0.7c-1.3,2.6-2.2,5-3.5,7.6
	c2.3-2.2,4.3-3.9,6.6-4.9C101.1-25.3,101.5-24.7,100.6-22.9z M88.3-29.2c-0.4,2-0.9,3.4-1.1,5.4c-0.6-2.1-1.2-3.7-1.7-5.8
	c0.2-2.9,1.9-3.5,3.7-4c4.6-0.2,5.3,1.9,4.7,3.7c-0.9,2.4-1.1,3.7-2,6.1c0-2.8-0.6-5.2-1.4-7.3C90-32.2,88.9-30.9,88.3-29.2z
	 M78.6-23.7c1.2,1.8,1.9,3.1,3.2,4.8c-2.1-1.2-3.7-1.7-5.7-2.9c-2.2-2.4-1.3-4.2-0.3-5.9c3.7-3.3,5.2-2.1,6.5-0.7
	c1.2,2.5,2.2,4.9,3.4,7.4c-2.2-2.1-4.2-3.8-6.4-4.8C78.2-25.9,77.8-25.4,78.6-23.7z M61.4-41.1c-0.1,3.8,0.2,8.8,2.4,12.6
	c-2-2.3-3.5-5.2-3.9-9.6c0.1-2.5,0-5.1,0.4-7.4c2.6-0.6,5.8-0.3,9.1,0.2c2.6,0,4.9,1.7,7.2,4.3c-2.6-3-8-2.3-12.8-2.7
	C62.4-43.8,61.5-43.3,61.4-41.1z M74.4-50.7c0.3,0.2,0.7,0.6,1.1,0.9c0.1-0.5,0.3-1.1,0.6-1.6c0.2-2.2-2-1.9-2.3-0.6
	C73.8-51.3,74-50.9,74.4-50.7z M73.5-58.5c-0.4-0.3-0.9-0.8-1.3-1.1c-0.1,0.6-0.4,1.3-0.8,2c-0.2,2.8,2.5,2.4,2.9,0.7
	C74.3-57.7,74.1-58.2,73.5-58.5z M72.9-50.2c1.3,0.7,2.5,1.7,3.6,2.8c0.1,0.4,0.2,0.8-0.3,0.5c-1.6-1.3-3.6-2.4-6.4-2.9
	c-1.6,0-3.3,0.1-3.6-1.3c-0.2-1.9,0.4-3.5,1.2-4.9c1.3-1.7,2.6-3.5,3.8-5.2c0.3,0.8,0,1.6-0.3,2.5c-1.3,3.1,0.1,3.9,1.9,4.2
	c2.4-0.5,2.8-1.8,2.7-3.2c-0.1-0.9-0.7-1.6-1.7-1.9c-0.5-0.5-1.1-0.9-1.4-1.6c2.1,0.2,4.3,0.5,6.4,0.8c1.1,0.7,2.5,1.5,3.6,4.6
	c-2.4,2-4.3,4.5-5.4,7.8c-0.3-0.4-0.4-0.9-0.2-1.8c0.3-0.7,0.6-1.5,0.9-2.2C76.8-56.2,70.6-54.1,72.9-50.2z M69.6-61.6
	c-1.2,4-5.2,6.1-4,12c-0.9,0-1.7,0-2.6,0c0.4-1.1,0.1-2.5-1-3.7c0.1-0.7,0.2-1.4-0.2-2.1c1.8-0.4,2.1-1.7,1.9-3.2
	c1.5-0.8,2.2-1.9,2-3.5c1.6-0.4,2.2-1.4,2-2.9c1.3,0,2.1-0.5,2.3-1.4c1.2,1.1,2.4,1.6,3.7,0.3c1.2,1.6,2.5,1.7,4,0.4
	c0.5,1.7,1.7,1.6,3.1,1c0.1,1.2,0.8,1.7,1.8,1.8c-0.6,1.5,0.3,3.8,1.8,4.3c-0.6,0.7-0.9,0.8-1.5,1.4c-1.6-3.1-1.3-4.7-5.8-5.2
	c-1.8-0.1-3.4,0.4-5.8,0.1C70.8-63,70.1-62.6,69.6-61.6z M93.5-76.2l1.3,1.5l-1.2,1.1l-1.2-0.9L93.5-76.2z M92-76.6
	c-0.2,0.4-0.3,0.7-0.5,1.1c-0.2,0.2-0.4,0.3-0.5,0.2c-0.4-0.1-0.7-0.2-0.9-0.5c0.1-0.7,0.1-1.5,0.5-1.8C91.3-77.5,92.1-77.3,92-76.6
	z M88.7-77.6c-0.1,0.7,0.1,1.8-0.5,1.9c-0.3,0.1-0.7,0.2-0.7-0.2c-0.2-0.7-0.8-1.5-0.2-1.9C87.8-77.9,88.3-78,88.7-77.6z M84-74.4
	c-0.3-0.4-0.6-0.9-0.9-1.3c0.7-0.6,1.2-1,1.8-1.5c0.7,0.2,0.7,1.1,1,1.9C85.4-74.9,84.7-74.4,84-74.4z M92.4-70.3
	c0.6,0.3,1.9,2.9,1.7,4.2c0.3,0,0.9-0.4,1.2-0.4c0.2-1.6-1.1-4.4-1.7-4.7C93.4-71.1,92.7-70.5,92.4-70.3z M94.6-72.6
	c0.7,0.3,2,4,2.1,5.5c0.4-0.1,0.7-0.1,1.1-0.2c0.3-1.9-1.4-5.8-2.1-6.3C95.3-73.3,94.9-73,94.6-72.6z M91.2-71.3
	c-0.2,0.1-0.2,0-0.2-0.1c0.2-0.5,0.6-1,1-1.5c0.3,0.1,0.5,0.2,0.6,0.5C92.1-71.9,91.5-71.5,91.2-71.3z M90-72.6
	c-0.1,0.1-0.1,0.1-0.2,0c-0.1-0.5,0.1-1,0.2-1.5c0.2-0.1,0.5,0,0.6,0.2C90.4-73.3,90.1-72.8,90-72.6z M88.4-72.7
	c0.1,0.2,0.1,0.1,0.2,0c0.1-0.4,0.1-1,0-1.5c-0.2-0.1-0.5-0.1-0.6,0.1C88.1-73.5,88.3-72.9,88.4-72.7z M87.3-71.5
	c-0.3-0.8-0.6-1.5-0.8-2.2c-0.3,0.1-0.7,0.3-1,0.4C85.7-72.1,86.5-71.8,87.3-71.5z M84.2-72.1c0.5,0,1.1,1.1,1.5,1.8
	c0.1-0.5-1.9,2.5-2,3.9c-0.6-0.1-1-0.3-1.5-0.5C81.6-69,83.5-71.9,84.2-72.1z M83.4-73.4c-0.9,0.3-2.8,4.2-2.6,5.9
	c-0.4-0.1-0.8-0.1-1.3-0.2c-0.3-2.1,1.6-6.2,2.5-6.7C82.5-74.1,83-73.7,83.4-73.4z M99.3-65.2c-0.8,0.2-1.3-0.3-1.5-0.8
	c0.6-0.2,1.2-0.4,1.8-0.6C99.8-66,99.7-65.4,99.3-65.2z M96-64c-0.8,0.4-1.5,0-1.8-0.5c0.7-0.4,1.3-0.7,1.9-1
	C96.5-65.1,96.5-64.3,96-64z M94.6-61.8c-0.1,0.9-0.7,1.3-1.4,1.3c0-0.8,0-1.5,0-2.1C94-62.7,94.6-62.4,94.6-61.8z M84.9-64.8
	c0.5,1.2,1,2.4,1.6,3.6c0.8-0.9,2.6-4.3,3.5-4c0.2,0.2,0.5,0.7,0.6,1.1c0.5,0.5,0.9,1.3,1.4,1.8c0.4-1.2,0.1-1.3,1.2-2.9
	c-0.4-2-0.9-4.9-4.4-5.4C86.6-70,84.9-68.6,84.9-64.8z M83.8-60.8c-0.2-0.9,0.1-1.4,0.8-1.7c0.2,0.7,0.4,1.4,0.6,2
	C84.4-60.1,84-60.3,83.8-60.8z M82.4-63.7c-0.6-0.7-0.3-1.6,0.2-2.1c0.5,0.5,1.1,1,1.5,1.5C83.6-63.7,82.8-63.4,82.4-63.7z
	 M79.2-65.1c-0.8-0.4-1-1-0.7-1.7c0.7,0.3,1.3,0.6,2,0.9C80.2-65.1,79.8-64.9,79.2-65.1z M75.6-65.8c-0.9-0.3-1.2-0.8-1-1.5
	c0.7,0.2,1.4,0.3,2.1,0.5C76.6-66.1,76.2-65.8,75.6-65.8z M134-53.9l-0.2,2l-1.6-0.1l-0.2-1.4L134-53.9z M133.5-55.3
	c-0.4,0.1-0.8,0.3-1.1,0.4c-0.3,0-0.5-0.1-0.5-0.2c-0.2-0.3-0.4-0.6-0.3-1c0.6-0.4,1.1-1,1.6-0.9C133.6-56.4,134.1-55.7,133.5-55.3z
	 M132.1-58.5c-0.6,0.3-1.4,1.1-1.8,0.7c-0.3-0.2-0.6-0.4-0.3-0.7c0.4-0.6,0.7-1.5,1.4-1.3C131.8-59.4,132.2-59,132.1-58.5z
	 M126.8-60c0.1-0.5,0.1-1.8,0.2-2.3c1,0,1.6,0.8,2.4,0.8c0.4,0.6-0.2,1.3-0.5,2.1C128.2-59.4,127.3-59.5,126.8-60z M129.1-51
	c0.2,0.6-0.7,3.4-1.7,4.2c0.2,0.2,0.9,0.4,1.2,0.6c1.3-1,2.3-3.9,2.2-4.6C130.3-50.8,129.5-50.9,129.1-51z M132.3-51.1
	c0.3,0.7-1.4,4.2-2.4,5.4c0.3,0.2,0.6,0.4,0.9,0.6c1.6-1.2,3.1-5.1,2.9-5.9C133.3-51,132.8-51.1,132.3-51.1z M129-52.5
	c-0.2,0-0.1-0.1-0.1-0.2c0.5-0.3,1.1-0.3,1.7-0.4c0.2,0.2,0.2,0.6,0.1,0.8C130-52.4,129.3-52.4,129-52.5z M129-54.1
	c-0.2,0-0.1,0-0.1-0.1c0.3-0.4,0.8-0.6,1.2-0.9c0.2,0.1,0.3,0.4,0.3,0.6C129.9-54.3,129.3-54.1,129-54.1z M128.1-55.9
	c-0.1,0.1,0,0.1,0.1,0.2c0.5-0.1,0.9-0.4,1.3-0.7c0-0.2-0.2-0.5-0.4-0.5C128.6-56.6,128.2-56.1,128.1-55.9z M126.8-56
	c0.3-0.8,0.6-1.5,1-2.1c-0.3-0.1-0.7-0.3-1-0.4C126.1-57.6,126.5-56.8,126.8-56z M124.9-58.7c0.4,0.4-0.1,1.5-0.2,2.3
	c0.4-0.3-3.1,0.5-4.1,1.3c-0.4-0.5-0.5-0.9-0.7-1.4C120.9-58.5,124.3-59.1,124.9-58.7z M125.5-60.5c-0.9-0.4-4.9,1-6,2.4
	c-0.3-0.3-0.5-0.7-0.8-1c1.2-1.7,5.6-3.2,6.6-3C125.4-61.6,125.4-61,125.5-60.5z M117.1-51.4c0.4-0.4,0.8-0.5,1.1-0.2
	c-0.3,0.4-0.6,0.8-0.9,1.1C117-50.7,117-51.1,117.1-51.4z M117.7-54.8c0.2-0.8,1.1-0.9,1.7-0.8c-0.2,0.7-0.3,1.3-0.4,1.9
	C118.3-53.8,117.7-54.3,117.7-54.8z M116.6-57.8c-0.3-0.7,0-1.2,0.4-1.5c0.3,0.5,0.6,1,0.8,1.5C117.4-57.4,116.9-57.4,116.6-57.8z
	 M114.3-61.2c-0.3-0.7,0-1.2,0.4-1.5c0.3,0.5,0.6,1,0.8,1.5C115.2-60.8,114.6-60.8,114.3-61.2z M112-64.4c-0.3-0.7,0-1.2,0.4-1.5
	c0.3,0.5,0.6,1,0.8,1.5C112.9-64.1,112.3-64.1,112-64.4z M120.7-53.3c-0.5,1.1-1.1,2.3-1.6,3.4c1.1,0.1,4.5-0.7,4.8,0.1
	c-0.8,0.5-0.6,3-0.7,3.7c1.1-0.4,0.9-0.8,2.7-1c1.2-1.5,2.8-4.1,1.1-7C125.3-55.3,123.4-55.7,120.7-53.3z M133.3-42.3
	c-0.4-0.1-0.7,0.1-0.8,0.6c0.2,1.2,1.5,1.1,1.7,0.7c0.3-0.3,0.3-0.6,0-0.8C133.9-41.8,133.6-42,133.3-42.3z M129.9-44.2
	c-0.4-0.1-0.7,0.1-0.8,0.7c0.2,1.2,1.5,1,1.7,0.7c0.3-0.3,0.3-0.6,0-0.8C130.5-43.6,130.2-43.8,129.9-44.2z M122.3-43.4
	c-0.2,0.5,0.3,0.8,1.3,0.9c0.7-0.1,1.6-0.2,1.5-1c0.1-0.5,0.2-1-0.4-1.2c-0.6-0.3-1.1-0.3-1.5,0C123.1-44.2,122.8-43.8,122.3-43.4z
	 M126.6-45.8c-0.4-0.1-0.7,0.1-0.8,0.7c0.2,1.2,1.5,1,1.7,0.7c0.3-0.3,0.3-0.6,0-0.8C127.3-45.3,127-45.5,126.6-45.8z M143.5-22
	c-0.8-0.8-1.8-1.1-3-1.1c0.1-0.4,0.2-0.8,0.3-1.3c1.3,0.1,2.6,0.5,3.8,1.1C144.2-22.8,143.8-22.4,143.5-22z M147.7-17.2
	c-0.3-0.4-0.5-0.8-0.8-1.2c0.7-0.3,1.3-0.7,1.9-1.4c0.3,0.7,0.6,1.4,0.9,2.2C148.9-17.5,148.2-17.4,147.7-17.2z M148-14.7
	c0-0.5,0-1-0.1-1.4c0.7,0.1,1.2,0,2.1-0.3c0.4,0.6,0.1,1.5,0,2.2C149.3-14.5,148.6-14.6,148-14.7z M144.9-20.9
	c0.5,0,1.1,0.5,1.7,1.1c0.3-0.2,0.7-0.5,1-0.7c0.2-0.2,0.2-0.4-0.1-0.6c-0.4-0.5-0.9-1-1.3-1.5c-0.4-0.2-0.6,0.1-0.8,0.4
	C145.2-21.8,145-21.3,144.9-20.9z M144.8-15c-0.2,0.1-0.1,0.1-0.1,0.2c0.5,0.2,1.1,0.2,1.8,0.2c0.1-0.3,0.2-0.7,0-0.9
	C145.8-15.4,145.1-15.2,144.8-15z M145.9-16.9c-0.4,0.1-0.8,0.3-1.1,0.4c-0.2-0.1-0.4-0.2-0.2-0.3c0.3-0.2,0.6-0.4,1-0.6
	C146.1-17.4,146.3-17.2,145.9-16.9z M143.3-17.5c0.6-0.5,1.3-1,2-1.3c-0.2-0.2-0.5-0.6-0.7-0.8C143.5-19.3,143.4-18.4,143.3-17.5z
	 M143-20.6c-0.2,0.5-0.5,1-0.8,1.5c-0.2,0.2-0.4,0.2-0.7-0.1c-0.6-0.4-1.3-0.7-2-1c0.4-0.4,0.5-0.8,0.6-1.3
	C141.1-21.6,142-21.1,143-20.6z M134.5-19.4c0.6-0.2,1,0,1.2,0.5c-0.5,0.2-1,0.4-1.5,0.5C134-18.9,134.2-19.2,134.5-19.4z
	 M138.2-24.5c0.2-0.9,0.7-1.2,1.4-1c-0.2,0.7-0.3,1.4-0.4,2.1C138.4-23.6,138.2-24,138.2-24.5z M136.9-21.5
	c-0.1,0.6,0.1,1.2,0.6,1.7c0.5-0.3,0.9-0.7,1.1-1.2c0.1-0.3,0-0.5-0.4-0.7C137.6-21.8,137.2-21.8,136.9-21.5z M66.9-67.5
	c0.3-0.7,0.6-1.3,1-1.4c0.3,0.2,0.5,0.5,0.5,1.1c0.1,0.4,0.1,0.9-0.5,1.2C67.2-66.6,66.8-66.9,66.9-67.5z M65.9-63.8
	c0.3-0.7,0.2-1.2-0.3-1.4c-0.3,0.6-0.6,1.1-0.9,1.6C65.2-63.3,65.6-63.4,65.9-63.8z M63.9-60.6c0.3-0.7,0.2-1.2-0.3-1.4
	c-0.3,0.6-0.6,1.1-0.9,1.6C63.2-60.1,63.6-60.2,63.9-60.6z M61.9-57.3c0.3-0.7,0.2-1.2-0.3-1.4c-0.3,0.6-0.6,1.1-0.9,1.6
	C61.3-56.8,61.7-56.9,61.9-57.3z M60.4-54c0.2-0.7,0-1.2-0.6-1.4c-0.2,0.6-0.4,1.2-0.6,1.7C59.8-53.4,60.2-53.6,60.4-54z M60.8-51.7
	c0.4,0.4,0.5,0.8,0.2,1.1c-0.4-0.3-0.7-0.6-1.1-0.9C60.2-51.8,60.5-51.8,60.8-51.7z M54.1-56.2c1.4,0,2.8,0.1,3.7,1.1
	c0.5-0.1,0.5-0.1,0.7-0.8c-1-1.4-2.5-1.9-4.2-2C54.2-57.2,54.2-56.9,54.1-56.2z M54.2-59.5c1.4,0,4.2,1.3,5.1,2.3
	c0.3-0.4,0.4-0.3,0.7-0.8c-1-1.4-3.9-3.1-5.6-3.2C54.3-60.5,54.3-60.2,54.2-59.5z M51.7-59.3c0.4-0.1,0.8-0.2,1.1-0.3
	c-0.1-0.6,0-0.8,0.1-1.5c-0.6,0-1.5-0.1-2.1,0.1C51.1-60.3,51.3-59.4,51.7-59.3z M48.9-58c0.4-0.2,0.8-0.4,1.3-0.7
	c-0.4-0.6-0.6-1.1-0.8-2c-0.7,0-1.3,0.6-1.9,1.1C48.1-59,48.5-58.5,48.9-58z M46.9-56c0.3-0.3,0.7-0.6,1-1c-0.6-0.5-1.1-1-1.5-1.8
	c-0.5,0.6-0.9,1.2-1.4,1.9C45.8-56.6,46.4-56.3,46.9-56z M46.5-54.5c-0.4,0.3-0.6,1-0.8,1.9c-0.4,0-0.8,0-1.2,0
	c-0.3-0.1-0.4-0.2-0.3-0.6c0.1-0.7,0.2-1.3,0.3-2c0.2-0.4,0.5-0.3,0.9-0.1C45.8-55,46.1-54.7,46.5-54.5z M52.5-56.2
	c0.1,0.2,0.2,0.1,0.2,0c0.2-0.5,0.1-1.2,0.1-1.8c-0.3-0.1-0.7-0.1-0.9,0.1C52-57.1,52.3-56.5,52.5-56.2z M50.6-57
	c0.2,0.4,0.4,0.7,0.5,1.1c-0.1,0.2-0.1,0.4-0.3,0.2c-0.2-0.3-0.5-0.6-0.7-0.9C50.1-57.2,50.2-57.4,50.6-57z M48.9-55.7
	c0.2,0.2,0.4,0.5,0.7,0.7c0,0.3,0,0.2-0.4,0.3c-0.3-0.3-0.5-0.5-0.8-0.6C48.5-55.6,48.6-55.9,48.9-55.7z M49.7-52.5
	c-0.8-0.1-1.6-0.2-2.3-0.2c0-0.3,0.1-0.7,0.2-1.1C48.7-54,49.2-53.2,49.7-52.5z M45.8-51c-0.2,1.4,0.9,4.4,1.8,5.5
	c-0.5,0.2-0.4,0.3-0.9,0.6c-1.1-1.4-2.5-4.5-2.4-6.1C45-51,45.1-51,45.8-51z M49.2-50.9c-0.2,1.4,0.2,2.6,1,3.7
	c-0.5,0.2-1,0.5-1.5,0.7c-0.8-1.3-1.4-2.8-1.6-4.5C47.9-50.9,48.6-50.9,49.2-50.9z M52.4-47c1.1,0.5,2.2,1,3.4,1.4
	c-0.1-1.2-0.2-2.3-0.4-3.5c-0.4-0.9-0.1-1.3,0.6-1.6c0.3,0.2,0.6,0.4,0.8,0.5c0.7,0,1.7,0.1,2.4,0.2c-0.4-1.1-1.4-1.4-1.5-3.3
	c-1.5-1.1-3-2.3-5.9-0.3C50.5-51.7,50.1-49.6,52.4-47z M52-45.6c0.4,0.2,0.4,0.5,0.2,1c-0.9,0.8-1.8-0.2-1.8-0.6
	c0-0.4,0.2-0.6,0.5-0.7C51.1-45.7,51.5-45.6,52-45.6z M26.4-15.5c0.2,0.1,0.5,0.3,0.7,0.4c0.7,0.4,0.8,1,0.2,1.8
	c-0.7,0-1.3,0.2-2,0.2C25-14.4,25.5-15.3,26.4-15.5z M54.2-43.6c0.5,0.3,0.9,0.3,1.1-0.1c-0.4-0.3-0.8-0.6-1.2-0.8
	C53.9-44.2,54-43.9,54.2-43.6z M45.3-40.5c0.4-0.4,0.4-0.8,0.1-1.1c-0.4,0.3-0.7,0.7-1,1C44.7-40.3,45-40.3,45.3-40.5z M48.3-42.9
	c0.6-0.5,0.6-1,0.2-1.5c-0.5,0.4-1,0.8-1.4,1.2C47.5-42.7,47.9-42.7,48.3-42.9z M41.9-38.8c-0.1,0.2-0.2,0.3-0.4,0.3
	c-0.3,0.2-0.2,0.3-0.1,0.4c0.5,0.1,0.9-0.1,1.1-0.6C42.5-38.9,42.4-39.1,41.9-38.8z M38.9-36.2c0.4-0.1,0.7,0.2,0.8,0.7
	c-0.1,0.4-0.1,0.9-0.8,0.8c-0.4,0-0.8,0.1-1-0.2c-0.2-0.3-0.2-0.6,0-0.8C38.2-35.8,38.5-36,38.9-36.2z M40-31.6
	c-0.2-0.7-0.6-1-1.2-0.8c0.2,0.6,0.3,1.2,0.4,1.8C39.9-30.8,40.1-31.1,40-31.6z M40.8-27.9c-0.3-0.6-0.6-1-1.2-0.8
	c0.3,0.6,0.4,1.2,0.4,1.8C40.6-27.1,40.8-27.4,40.8-27.9z M40.8-24.1c0.2,0.2,0.3,0.4,0.3,0.5c0.1,0.4,0.3,0.4,0.5,0.3
	c0.2-0.6,0.1-1.1-0.4-1.4C40.8-24.8,40.6-24.7,40.8-24.1z M42.4-20.8c0.3,0.3,0.3,0.6,0.1,0.9C41.9-20.3,41.8-21,42.4-20.8z
	 M44.9-19.5c0.6,0.3,0.9,0.8,1,1.5c-0.5,0.2-1.1,0.3-1.6,0.1C44-18,43.9-18.2,44-18.6C44.2-19.2,44.5-19.5,44.9-19.5z M33.4-20.5
	c0.4,0.5,0.8,0.8,1.3,1.1c1.2-1,3.7-2.2,5.2-2.6c0.1-0.3-0.1-0.7-0.5-1C37.5-22.9,34.7-21.8,33.4-20.5z M35.7-18.4
	c0.4,0.5,0.8,0.9,1.3,1.2c1.2-1.1,2.5-1.8,4-2.1c0.1-0.4-0.1-0.7-0.5-1.1C38.6-20.3,37-19.7,35.7-18.4z M34.4-16.2
	c0.9,0.4,1.6,0.7,1.9,0.6c-0.5-0.4-1-0.9-1.4-1.6C34.6-17,34.4-16.7,34.4-16.2z M33.7-18.2c-0.5,0.6-0.7,1.8-1.5,1.1
	c-0.4-0.2-0.8-0.3-1.2-0.5c0.5-0.6,0.9-1.2,1.4-1.8C32.9-19,33.3-18.6,33.7-18.2z M44-32.7c1.9,3.7,0.3,8.4,5.2,11.7
	c-0.6,0.7-1.3,1.3-1.9,2c-0.2-1.1-1.2-1.9-3-2.2c-0.4-0.6-0.8-1.2-1.6-1.3c1-1.6,0.4-2.7-0.8-3.6c0.6-1.7,0.3-3-1-3.9
	c0.9-1.5,0.7-2.6-0.5-3.5c1-1,1.2-1.8,0.8-2.6c1.7,0,2.9-0.6,3-2.4c2,0.3,3-0.6,3.2-2.6c1.5,0.8,2.4-0.1,3-1.5
	c0.9,0.8,1.8,0.7,2.6,0c0.6,1.5,1.8,1.5,3.3,0.8c0,0.9,0,1.9,0,2.8c-3.3-1.1-3.3-2.1-7,0.7c-0.8,1.4-2.3,2.7-4.2,4.2
	C44.1-34.5,43.7-33.8,44-32.7z M71.7-24.1c-3.6-1.8-6.9-3.6-7.5-5.9c-0.9-1.5-1.2-3.6-1.4-5.9c0-2.1,0.1-4.1,0.1-6.2
	c3.6-0.3,6.5,0.2,9.7,0.4c1.1,0.1,2.1,1,3.2,1.9c1,1.1,2,2.3,2.6,3.6c-0.5,0.1-0.9,0.6-1.3,1.5c-0.6-0.6-1.2-1.2-2.4-0.3
	c-0.6,0.2-1.2,0.8-1.6,2c-2.6,0.5-3.1,1.8-2.5,3.5c-0.2,0.3-0.4,0.6-1.1,0.6C68.1-25.1,68.2-25.8,71.7-24.1z M123.3-22.9
	c3.8,2.1,6.7,5.2,9.3,8.6c-0.1,0.9-0.4,1.4-1.5,1c-1.4-2.2-3.6-4.5-5.6-6.7c-2.6-1.6-5.2-3-7.9-3c2.3,0.7,4.3,2.1,6.1,3.8
	c1.5,1.7,3,3.4,4.4,5.2c0.1,0.6-0.2,0.9-1.1,0.8c-1.9-2.5-4-5-7-7.1c-2.6-1.4-5.3-1.8-7.9-0.8c-0.4,0.2-0.3,0.5,0,0.7
	c0.6,0.1,0.8,0.6,0.3,1.8c-0.2,0.2-0.2,0.4,0.1,0.5c1.6,1,2.5,2.3,0.6,4.3c-0.5,0.6-2.6,0.6-5,0.6c-0.9-3.8-2.5-5.7-5-4.9
	c-1.8,0.6-3.5,1.2-5.3,1.7c0.1,0.5,0.6,0.6,1.1,0.6c3.3,0.1,6.1,0.7,6.1,2.3c-3.3,0.4-7.1,0.4-10.3,0.2c-1-0.7-2.1-1.7-2.8,0
	c-0.8,0.3-1.4-0.1-1.5-0.6c0.2-0.2,0.3-0.5,0.5-0.7c-0.6-0.3-1-0.8-0.7-1.8c-0.4,0.1-0.8,0.3-1.2,0.4c-0.2,0.4-0.3,1-0.9,1.1
	c-0.2,0.2-0.3,0.4-0.1,0.6c0.1,0.3,0.5,0.7-0.5,0.9c-0.4,0.1-0.9,0.2-1.2-0.2c-0.1-0.3-0.4-0.5-1-0.7c-0.7,0-1.4-0.1-1.6,1
	c-1.8,0-3.5,0-5.3,0c-0.4-0.3-0.8-0.9-1.1-0.1c-0.6,0-1.3,0.1-1.9,0.1c-1.6-0.9-3.2-1.8-1.7-2.5c1.9-0.9,4.3-1,6.9-0.8
	c-2.3-0.9-4.6-1.7-7-2.6c-1.8,0.7-2.7,2.6-2.9,5.6c-2,0-4,0-6,0c-0.1-0.6,0.3-0.8,0.6-1.1c-0.9-1.1-1-2.2-0.6-3.2
	c0.6-1.1,1.1-1.2,1.7-1.1c-0.5-0.4-0.9-0.9-0.6-1.7c0.3-0.4,0.6-0.7,0.9-1.1c-3.2-0.9-6.2-0.8-8.8,0.9c-2.2,2.1-4.4,4.2-6.6,6.4
	c0.6,0.6,0.6,1.1-0.8,1.1c-1.1-1.2-0.5-1.6,0.1-2.2c2.3-3.2,5-5.3,7.7-7.2c-0.9-0.1-1.8-0.2-6.5,4.1c-1.5,1.7-3,3.4-4.5,5.1
	c-0.9,0.4-1.3,0.2-1.2-0.6c3-4.3,6.8-7.6,11.2-10c5.2-1.7,13,1.9,20.8,5.2c-4.7-2.8-9.4-5.5-14.1-8.3c-2.7-1.9-4.6-5.4-5.8-10.2
	c0-2.4,0-4.9,0.1-7.3c0.1-1.4,0.5-2.2,1.5-2.4c4.4-0.8,7.8-0.2,11,0.6c2.1-0.1,4.5,2,7.4,6.2c2.2,4.8,4.5,9.5,6.7,14.3
	c-1.6-5.7-3.1-11.4-4.7-17c-1.2-4.1,0.1-7.5,2.4-10.6c2.1-2.9,4.4-5.1,6.6-7c4.2,2.1,6.7,6,9.1,10c1.4,2.8,2,6.4-0.6,12.9
	c-1.4,4.2-3.8,9.6-4,12.7c2.9-4.8,5.4-12.4,8.9-17.7c2.4-2.5,5-3.9,7.9-4.2c2.6-0.1,5.3-0.2,7.9-0.2c2.3-0.2,2.4,1.7,2.1,5.1
	c-0.3,3.1-0.5,6.1-0.9,9.2c-0.9,2.9-4.3,7-17.5,13.6c4.2-1.7,8.5-3.3,12.7-4.4C118.1-25.2,120.7-24,123.3-22.9z M55-28.3
	c0.4-0.1,0.9-0.1,1.3-0.2c-0.3-0.4-0.6-0.9-0.8-1.4c-1.5-1.6-2.7,0.2-1.9,1.3C54.1-28.2,54.6-28.1,55-28.3z M48.7-32.6
	c-0.5,0.1-1.2,0.1-1.7,0.3c0.4,0.5,0.8,1.1,1,1.8c1.9,2,3.4-0.3,2.4-1.7C49.9-32.7,49.3-32.8,48.7-32.6z M54.4-26.9
	c1.4-0.5,2.8-0.8,4.4-0.9c0.4,0.2,0.7,0.4,0.2,0.6c-2,0.3-4,1.1-6.2,2.8c-1,1.1-2.1,2.5-3.3,1.8c-1.6-1.1-2.3-2.5-2.8-4
	c-0.5-2-0.9-4.1-1.4-6.1c0.8,0.3,1.2,1.1,1.6,1.8c1.5,2.9,2.9,2.5,4.3,1.3c1.1-2.1,0.5-3.2-0.7-4c-0.7-0.5-1.6-0.5-2.5,0
	c-0.7,0.1-1.3,0.2-2,0c1.5-1.4,3.1-2.8,4.6-4.2c1.2-1.7,3.1-1.7,5.6,0.3c-0.1,3,0.6,6,2.3,8.9c-0.5-0.1-0.9-0.3-1.4-1
	c-0.4-0.7-0.7-1.4-1.1-2.1C52.5-33.6,50.1-27.7,54.4-26.9z M153.3-19.3c1.1-0.3,1.5,0.4,1.8,1.3c0,0.4-0.1,0.8-0.1,1.2
	c-0.3,1.5-1.7,1.2-2.3-0.3c-0.5-0.1-0.9-0.1-1.4,0.3c0.3,1.1,0.9,2.2-0.1,3.5c-2.1,0-4.1-0.1-6.2-0.1c-0.2,0-0.5-0.1-0.7-0.1
	c-0.4,0.1-0.7,0.1-1.1,0.2c0.2-1.3,0-2.4-0.6-3.4c-1-0.9-2.1-1.7-3.3-1.8c-0.8,0-1.6,0.1-2.5,0.9c-0.8,0.2-1.5,0.4-2.3,0.6
	c1.3,1,2.6,2.1,3.9,3.1c0,0.2,0,0.4,0.1,0.6c-0.6,0-1.1,0-1.7,0c-1.3-1.2-2.7-2.4-4-3.6c-1.1-1.2-2.2-2.4-3.3-3.6
	c-2.6-2.6-5.2-5-9.3-5.2c-0.6-0.2-1.2-0.5-1.8-0.7c-0.4-0.8,0.1-1.1,0.7-1.3c2.4-2.9,2.6-5.9,2.5-8.7c-0.1-4.3,0-8.5,0.3-12.6
	c-0.8,0.1-1.7,0.2-2.5,0.3c-2.7,0.5-5.3,0.7-7.5,0.5c-2.8,0.3-5.5,0.8-8,2c-0.8,0.8-1.5,1.5-2.3,2.3c-0.3,0.1-0.6,0.5-1-0.6
	c0.3-0.3,0.6-0.6,0.9-1c-0.6-0.6-0.5-2.4-0.5-4c-0.6-1.2-1.5-2.6-2.9-4.1c-2.7-3.3-5.6-6.6-8.3-9.9c-1,1.3-1.9,2.5-2.9,3.8
	c-1.7,1.8-3.3,3.7-5,5.5c-1.8,2-3.1,4.5-3.5,8c0,0.4,0,0.8,0,1.3C78-44.2,77.7-44,77-44.4c-1.7-2.1-3.8-3.6-6.8-3.7
	c-3.1-0.1-6.3-0.2-9.4-0.4c-1.4,0-2.7,0-4.1-0.1c0.2,1.5,0.4,2.9,0.6,4.4c0.2,2.4,0.4,4.8-0.2,7.2c0.5,3.2,1.2,6.3,2.5,8.6
	c0.5,0.4,0.9,0.7,1.4,1.1c0.6,0.7,0.6,1.2-0.2,1.4c-2-0.1-4,0.2-5.9,1.4c-2.7,2.6-5.5,5.3-8.2,7.9c-0.9,1.1-1.9,2.2-2.8,3.3
	c-0.6,0-1.2,0.1-1.8,0.1c-0.2-0.2-0.3-0.5-0.4-0.7c0.1-0.2,0.2-0.4,0.3-0.6c0.2,0,0.4,0,0.7,0c0.6-0.6,1.3-1.2,1.9-1.8
	c-1.3-0.2-2.2-0.8-2.8-1.6c-1.8,0.2-3.2,1.2-4.4,2.7c0,0.6,0,1.2,0,1.8c-0.4,0.2-0.8,0.3-1.2,0c-0.4-0.7-1.1-1.2-1.9-1.4
	c-0.4-0.1-0.6,0.3-0.6,1c0,0.5-0.4,0.7-1,0.5c-0.3,0-0.4-0.4-0.5-0.8c0.2-0.2,0.4-0.4,0.5-0.7c0-0.2-0.1-0.5-0.1-0.7
	c-0.6,0-1.2-0.3-2-0.7c-0.3,0.4-0.5,1-0.4,1.9c0,0.9-0.3,1.3-1.2,0.9c-0.3-0.3-0.3-0.9-0.1-1.6c0.1-0.7,0.4-1.1,0.7-1.5
	c-0.3-0.1-0.5-0.3-0.8-0.5c-1.2,0.2-2-0.3-1.8-2.3c0.6-0.3,0.9-0.7,1-1.2c0.5-0.5,1.1-0.1,1.6,0.4c0.2,0.4,0.3,0.9,0.1,1.3
	c-0.3,0.4,0,0.8,0.3,0.4c0.5-0.8,1-1.5,1.6-2.1c-0.4-0.4-0.7-0.7-1.1-1.1c-0.8,0-1.5-0.2-1.4-1.5c0.1-0.6,0.5-1,1.1-1.3
	c0.4-0.7,0.9-0.5,1.3-0.2c1,0.7,0.9,1.8-0.2,2.1c0.4,0.4,0.9,0.7,1.3,1.1c2-1.5,4.3-2.5,6.9-2.9c-0.7-3.3-1.4-6.6-2.5-10
	c-0.6-0.5-0.6-1.4-0.4-2.4c0.5-0.4,1-0.4,1.4-0.3c2.6-2.2,5.1-4.4,7.7-6.7c-1.5-2-2.6-4.4-2.8-7.4c-0.3,0-0.5,0-0.8,0
	c0,0.2,0.1,0.4,0.1,0.7c0.2,0.8-0.1,1.4-1.4,1.7c-0.7-0.2-1-0.6-0.6-1.4c-0.5-0.7-0.4-1.2,0-1.4c-0.3-0.8-0.1-1.2,0.3-1.4
	c0.3-0.4,0.7-0.3,1.2-0.2c0.4,0.1,0.6,0.5,1,0.7c-0.1-1.5,0.2-2.9,0.7-3.7c-0.3-0.1-0.6-0.2-1,0c-0.7,1-1.9,0.9-2.3-0.7
	c0-1.1,0.6-1.8,1.6-2.1c0.8-0.1,1.3,0.5,1.7,1.2c0.3,0.3,0.6,0.3,0.9,0c0.3-1,0.9-1.5,1.5-1.7c-0.2-0.4-0.4-0.8-0.8-1.2
	c-1.2-0.4-2-1-1.4-1.9c0.2-0.5,0.6-0.9,1.1-1.2c0.4-0.4,0.8-0.4,1.2,0c0.6,0.7,0.8,1.4-0.2,2.2c0.3,0.3,0.6,0.7,1,1
	c0.9-0.6,1.8-1.1,2.7-1.4c0-0.3,0-0.5,0-0.8c-1.2-0.7-1.4-1.5-0.8-2.6c1-0.8,1.7-0.5,2.5-0.2c0.4,0.9,0.5,1.7-0.9,2.1
	c-0.1,0.5,0,0.8,0.4,1c0.9,0,1.7-0.1,2.6-0.1c0-0.7,0.1-1.4,0.1-2.1c-0.1,0-0.2-0.1-0.3-0.1c0-0.6-0.1-1.2-0.1-1.8
	c1-0.7,1.7-0.8,2.1,0.2c0.6-0.3,1-0.2,0.9,0.8c-0.1,0.5-0.2,1.1-1.6,1.1c0,0.8,0,1.5,0,2.3c3.2,0.3,5,1.5,6.4,3
	c2.2-3.6,4.4-7.2,6.6-10.8c0.4,0.1,0.9,0.2,1.3,0.4c3.2,0.7,6.5,1.4,9.7,2c0.7-3.8,1.7-6.5,3.1-7.7c0.1-0.4-0.1-0.7-0.8-0.4
	c-0.2,0.2-0.3,0.4-0.5,0.6c-0.3,0.2-0.8,0.2-1.3-0.1c-0.5-0.5-0.5-0.9-0.1-1.4c0.3-0.5,0.6-1,1-1.4c1-0.9,1.6-0.8,1.9-0.1
	c0.4,0.6,0.5,1.2,0.4,1.8c1.1-0.7,2.2-1.4,3.3-2.1c0-0.7-0.4-1.2-1.2-0.9c-1.1-0.4-1.2-1.2-0.6-2.3c1.5-1,2.3-0.4,2.9,0.5
	c0.1,0.6,0.1,1.1-0.3,1.5c0.1,0.3,0.1,0.5,0.2,0.8c1.1-0.4,2.1-0.4,2.9-0.1c0-0.6,0-1.2,0-1.7c-0.7-1.6-0.4-2.2,0.3-2.5
	c1.4-0.4,2.3-0.1,2.4,1.5c-0.2,0.8-0.6,1.1-1.5,1c0,0.5-0.2,0.9-0.2,1.4c1.1,0.4,1.9,0.8,2.6,1.2c0.3-0.2,0.5-0.3,0.8-0.5
	c-0.3-1.6-0.2-2.7,1.1-2.5c1.6,0,1.8,1,2,2.2c-0.4,0.4-0.7,1.1-1.7,0.8c-0.2-0.1-0.2-0.1-0.3-0.3c-0.3,0.2-0.7,0.4-0.5,1.1
	c0.8,0.5,1.4,1.1,1.9,1.8c1.3-0.7,1.5-2.8,2.2-2.9c1,0,1.7,0.6,2.2,1.7c0.4,1.2-0.2,1.7-1.7,1.5c-0.1-0.3-0.2-0.6-0.3-0.9
	c-0.6,0.3-1.2,0.8-1.7,1.6c1.5,1.9,2.1,4.3,2.2,7c3.9-0.9,7.8-2.1,11.5-3.4c0.4,0.2,0.8,0.5,1.2,0.7c0,0.3,0,0.6,0,1
	c2,2.9,4.1,5.9,6.1,8.8c3.4-2.6,5.9-3.1,8-2.8c0.3-0.3,0.3-0.6,0.1-0.8c-0.7,0.1-1.3,0-1.7-1.1c0.1-0.5,0.4-0.8,0.8-0.8
	c0.3,0,0.5-0.1,0.8-0.1c0.4,0,0.7,0,1.1,0.1c0.8,0,1.1,0.5,0.9,1.5c-0.2,0.2-0.4,0.5-0.6,0.7c-0.2,0.3-0.2,0.5,0.1,0.6
	c1.6,0,2.7,0.3,3.1,1.1c0.7-0.1,0.7-0.4,0.8-0.7c0.1-0.2-0.3-0.4-0.6-0.7c-0.5-1.7,0.2-1.9,1.1-1.8c0.7,0.1,1.3,0.5,1.8,1.6
	c-0.1,0.8-0.6,1.2-1.4,1.5c-0.1,0.2-0.2,0.5-0.1,1.2c0.9,0.2,1.3,0.9,1.7,1.6c0.9-0.5,1.2-1.1,1.6-1.8c0.4-0.4,0.8-0.6,1.3-0.4
	c0.5,0.6,1.4,1.3,1.2,2.2c-0.6,1.3-1.2,1.2-1.8,0.5c-0.6,0-1.2,0.3-1.8,0.8c0.7,0.8,1,1.7,1.2,2.7c0.7-0.1,1.3-0.6,2-1
	c0.9-0.4,1.3,0.2,1.7,1.1c0.3,0.9,0.2,1.7-0.6,2.3c-1.3,0.2-1.7-0.4-1.6-1.3c-0.4,0.1-0.9,0.2-1.3,0.2c0.2,0.9,0.1,1.9,0.1,2.8
	c0.7,0,1.4,0.1,2.1,0.1c1.3-0.8,1.8,0,2.1,1.2c0.1,0.7-0.2,1.5-1.1,2.2c-1.2-0.2-1.7-0.8-1.3-1.9c-0.7-0.1-1.4-0.2-2.2-0.2
	c-0.3,2.1-1.3,4.1-3,5.9c3.1,1.7,6.2,3.5,9.2,5.2c1.8,1,1.3,1.8,0.4,2.5c-0.3,3.6-0.5,7.3-0.8,10.8c1.7,0.2,3.2,0.4,3.8,1.1
	c0.8-0.1,1-0.4,0.8-0.9c-1.2-0.9-1.2-1.7-0.7-2.5c0.6,0.3,1.3,0.5,2,0.4c0.2,0.3,0.3,0.8,0.9,0.8c0.4,0.5,0.6,1-0.4,1.8
	c-0.4,0.2-0.8,0.4-1.1,1c1.1,0.5,2.1,1.2,2.6,2.4c0.4-0.2,0.8-0.5,1.2-0.7c-0.5-0.5-0.6-0.9-0.4-1.4c0.5-0.9,1-1.1,1.5-0.7
	c0.4,0.3,0.6,0.5,0.9,0.6c0,0.3,0.1,0.6,0.1,0.9c0.6,0.5,0.3,0.8,0,1.1c-0.6,0.3-1.2,0.5-1.8,0.8c-0.2,0.2-0.4,0.4-0.6,0.6
	c0.6,0.8,1,1.6,1.2,2.5C151.6-17.9,152.4-18.5,153.3-19.3z"/>
<path class="st0" d="M122.9,46.2c0.8,0.4,1.5-0.1,1.6,1.6v9.7l-2.1-2.2c-2-2.2-4.3-4.6-6-6.7c-0.3-0.3-0.5-0.5-0.7-0.8
	c-0.6-0.7-1.6-1.9-2.2-2.1c0.1,1.3,0.2,2.6,0.2,4c0,1.3,0,2.7,0,4.1c0,0.9,0.1,5.2-0.2,5.9c-0.5,0.5-0.9,0.3-1.4,0.6
	c0.3,0.3,3.4,0.1,4.1,0.1v-0.2c-1.2,0-1.6-0.4-1.6-1.7v-9.6c0.7,0.3,0.9,1,1.5,1.5c0.6,0.5,0.8,1,1.3,1.5c0.7,0.6,0.9,0.9,1.4,1.5
	l4.1,4.4c0.3,0.4,2.3,2.7,2.8,2.9c0-1.2-0.2-2.7-0.2-3.9v-8.1c0-2.7,0.5-1.9,1.6-2.4c-0.1-0.1,0-0.1-0.2-0.1l-1.9,0
	C124.4,46,123.1,46,122.9,46.2z"/>
<path class="st1" d="M122.9,46.2c0.8,0.4,1.5-0.1,1.6,1.6v9.7l-2.1-2.2c-2-2.2-4.3-4.6-6-6.7c-0.3-0.3-0.5-0.5-0.7-0.8
	c-0.6-0.7-1.6-1.9-2.2-2.1c0.1,1.3,0.2,2.6,0.2,4c0,1.3,0,2.7,0,4.1c0,0.9,0.1,5.2-0.2,5.9c-0.5,0.5-0.9,0.3-1.4,0.6
	c0.3,0.3,3.4,0.1,4.1,0.1v-0.2c-1.2,0-1.6-0.4-1.6-1.7v-9.6c0.7,0.3,0.9,1,1.5,1.5c0.6,0.5,0.8,1,1.3,1.5c0.7,0.6,0.9,0.9,1.4,1.5
	l4.1,4.4c0.3,0.4,2.3,2.7,2.8,2.9c0-1.2-0.2-2.7-0.2-3.9v-8.1c0-2.7,0.5-1.9,1.6-2.4c-0.1-0.1,0-0.1-0.2-0.1l-1.9,0
	C124.4,46,123.1,46,122.9,46.2z"/>
<path class="st0" d="M77.6,46.2c0.5,0.3,0.9,0,1.3,0.7c0.3,0.6,0.2,5.5,0.2,6.3c0,0.9,0.1,5.7-0.2,6.3c-0.5,0.7-0.9,0.4-1.3,0.7
	c0.2,0.1,4,0.2,4.3,0l-0.1,0c-0.5-0.2-0.8-0.1-1.2-0.6c-0.3-0.5-0.2-1.1-0.2-1.6V46.7c2.7-0.3,4.8,0,4.9,2.9
	c0.1,2.9-1.6,3.6-4.2,3.6c0.1,0.2,0,0.1,0.2,0.2c0.9,0.5,1,0.7,1.9,1.8c2.6,3.6,2.6,5.2,6.7,5.2c0-0.2,0.1-0.1-0.5-0.3
	c-0.7-0.1-1-0.4-1.6-0.9c-1.5-1.4-2.4-3.8-4.3-5.4c1.6-0.4,2.3-0.9,2.9-2.3c0.6-1.3,0.5-3-0.3-4.1c-0.7-1-2-1.4-3.7-1.4
	C81.5,46,77.9,45.8,77.6,46.2z"/>
<path class="st1" d="M77.6,46.2c0.5,0.3,0.9,0,1.3,0.7c0.3,0.6,0.2,5.5,0.2,6.3c0,0.9,0.1,5.7-0.2,6.3c-0.5,0.7-0.9,0.4-1.3,0.7
	c0.2,0.1,4,0.2,4.3,0l-0.1,0c-0.5-0.2-0.8-0.1-1.2-0.6c-0.3-0.5-0.2-1.1-0.2-1.6V46.7c2.7-0.3,4.8,0,4.9,2.9
	c0.1,2.9-1.6,3.6-4.2,3.6c0.1,0.2,0,0.1,0.2,0.2c0.9,0.5,1,0.7,1.9,1.8c2.6,3.6,2.6,5.2,6.7,5.2c0-0.2,0.1-0.1-0.5-0.3
	c-0.7-0.1-1-0.4-1.6-0.9c-1.5-1.4-2.4-3.8-4.3-5.4c1.6-0.4,2.3-0.9,2.9-2.3c0.6-1.3,0.5-3-0.3-4.1c-0.7-1-2-1.4-3.7-1.4
	C81.5,46,77.9,45.8,77.6,46.2z"/>
<path class="st0" d="M24.1,46.2c0.7,0.3,1,0,1.4,0.8c0.3,0.7,0.1,9.2,0.1,10.6c0,3.2-0.5,2-1.5,2.7c0.3,0.2,4.1,0.2,4.3,0
	c-0.8-0.6-1.5,0.3-1.5-2.3V46.7c1.2,0,2.8-0.1,3.6,0.4c0.8,0.4,1.3,1.5,1.4,2.7c0.1,4.1-3.8,3.2-4.3,3.5c0.2,0.2,0.5,0.2,0.7,0.3
	c1.4,0.8,3.3,5.1,5,6.2c0.7,0.4,2.6,0.9,3.3,0.5L36,60.1c-2.4-0.5-3.8-4.6-5.8-6.3c3.6-0.7,3.7-4.7,2.6-6.3c-0.8-1.1-2-1.5-3.7-1.5
	C28.6,46,24.4,45.9,24.1,46.2z"/>
<path class="st1" d="M24.1,46.2c0.7,0.3,1,0,1.4,0.8c0.3,0.7,0.1,9.2,0.1,10.6c0,3.2-0.5,2-1.5,2.7c0.3,0.2,4.1,0.2,4.3,0
	c-0.8-0.6-1.5,0.3-1.5-2.3V46.7c1.2,0,2.8-0.1,3.6,0.4c0.8,0.4,1.3,1.5,1.4,2.7c0.1,4.1-3.8,3.2-4.3,3.5c0.2,0.2,0.5,0.2,0.7,0.3
	c1.4,0.8,3.3,5.1,5,6.2c0.7,0.4,2.6,0.9,3.3,0.5L36,60.1c-2.4-0.5-3.8-4.6-5.8-6.3c3.6-0.7,3.7-4.7,2.6-6.3c-0.8-1.1-2-1.5-3.7-1.5
	C28.6,46,24.4,45.9,24.1,46.2z"/>
<path class="st0" d="M68.5,53.6c0.3,0.3,0.7,0,1,0.4c0.6,0.4,0.3,4,0.3,4.1c-0.2,0.9-2.7,1.8-3.8,1.9c-3.5,0.3-5.7-2-6.2-5.1
	c-1.2-6.5,3.8-9.9,8-7.9c2.1,1,2.2,2.8,2.7,3.1c-0.1-0.6-0.2-2.7-0.6-3c-0.9-1.1-8.3-3.2-11,2.7c-2.2,4.9,0.6,11.6,7.3,10.9
	c1.4-0.1,2.4-0.5,3.6-1.3c1.6-1.2,1.3-1.5,1.3-3.7c-0.1-2.7,0.5-1.3,1.3-2C72.1,53.4,68.7,53.4,68.5,53.6z"/>
<path class="st1" d="M68.5,53.6c0.3,0.3,0.7,0,1,0.4c0.6,0.4,0.3,4,0.3,4.1c-0.2,0.9-2.7,1.8-3.8,1.9c-3.5,0.3-5.7-2-6.2-5.1
	c-1.2-6.5,3.8-9.9,8-7.9c2.1,1,2.2,2.8,2.7,3.1c-0.1-0.6-0.2-2.7-0.6-3c-0.9-1.1-8.3-3.2-11,2.7c-2.2,4.9,0.6,11.6,7.3,10.9
	c1.4-0.1,2.4-0.5,3.6-1.3c1.6-1.2,1.3-1.5,1.3-3.7c-0.1-2.7,0.5-1.3,1.3-2C72.1,53.4,68.7,53.4,68.5,53.6z"/>
<path class="st0" d="M43.5,60.2c-0.5-0.3-0.9-0.2-1-0.8c0-0.4,0.3-1.1,0.5-1.5c0.2-0.6,0.7-2.1,1-2.5h5.2c0.3,0.8,0.7,1.9,1,2.7
	c0.7,1.8,0.2,1.7-0.5,2c-0.2,0.1-0.1-0.1-0.2,0.2c0.8,0,4.1,0.1,4.4-0.1c-0.6-0.4-0.9,0-1.6-1.1l-2.4-5.8c-0.3-1-2.9-7.4-3.1-7.6
	L42,57.4c-1.4,3.5-1.4,2-2.4,2.8c0.1,0.1,0,0.1,0.3,0.1C40.5,60.4,43.2,60.5,43.5,60.2z M44.2,54.8c0.1-0.8,1.9-5.3,2.4-6.4l2.3,6.4
	H44.2z"/>
<path class="st1" d="M43.5,60.2c-0.5-0.3-0.9-0.2-1-0.8c0-0.4,0.3-1.1,0.5-1.5c0.2-0.6,0.7-2.1,1-2.5h5.2c0.3,0.8,0.7,1.9,1,2.7
	c0.7,1.8,0.2,1.7-0.5,2c-0.2,0.1-0.1-0.1-0.2,0.2c0.8,0,4.1,0.1,4.4-0.1c-0.6-0.4-0.9,0-1.6-1.1l-2.4-5.8c-0.3-1-2.9-7.4-3.1-7.6
	L42,57.4c-1.4,3.5-1.4,2-2.4,2.8c0.1,0.1,0,0.1,0.3,0.1C40.5,60.4,43.2,60.5,43.5,60.2z M44.2,54.8c0.1-0.8,1.9-5.3,2.4-6.4l2.3,6.4
	H44.2z"/>
<path class="st0" d="M96.9,60.2c-0.6-0.4-1.4,0-0.6-2.3c0.3-0.7,0.7-2,1-2.6h5.2c0.5,0.7,0.8,1.9,1,2.6c0.8,2.2,0.2,1.7-0.6,2.2
	c0.3,0.3,1.6,0.1,2.2,0.1c0.1,0,2.1,0,2.1-0.1c0,0,0.1,0,0.1,0l-0.1-0.1c-0.6-0.2-1-0.1-1.6-1l-4-9.7c-0.2-0.6-0.5-1.2-0.8-1.9
	c-0.1-0.5-0.3-1.5-0.8-1.8l-1.5,3.9c-0.6,1.3-1,2.6-1.6,3.9c-0.2,0.7-2.1,5.3-2.4,5.7c-0.8,1.2-1.4,0.5-1.6,1.1L96.9,60.2z
	 M97.6,54.8c0.2-0.8,2.2-6.1,2.6-6.4l2.2,6.4H97.6z"/>
<path class="st1" d="M96.9,60.2c-0.6-0.4-1.4,0-0.6-2.3c0.3-0.7,0.7-2,1-2.6h5.2c0.5,0.7,0.8,1.9,1,2.6c0.8,2.2,0.2,1.7-0.6,2.2
	c0.3,0.3,1.6,0.1,2.2,0.1c0.1,0,2.1,0,2.1-0.1c0,0,0.1,0,0.1,0l-0.1-0.1c-0.6-0.2-1-0.1-1.6-1l-4-9.7c-0.2-0.6-0.5-1.2-0.8-1.9
	c-0.1-0.5-0.3-1.5-0.8-1.8l-1.5,3.9c-0.6,1.3-1,2.6-1.6,3.9c-0.2,0.7-2.1,5.3-2.4,5.7c-0.8,1.2-1.4,0.5-1.6,1.1L96.9,60.2z
	 M97.6,54.8c0.2-0.8,2.2-6.1,2.6-6.4l2.2,6.4H97.6z"/>
<path class="st0" d="M145.3,54.4c-0.2,0.8-0.2,1.5-0.6,2.3c-0.8,2.1-2.7,3.3-5.1,3.3c-6.7-0.1-7.3-11.2-2-13.3
	c1.5-0.6,3.4-0.5,4.7,0.2c0.7,0.4,1.2,0.7,1.5,1.3c0.9,1.1,0.5,1.5,1,1.8c0-0.4-0.3-2.8-0.5-2.9c-1-0.9-3.1-1.3-4.4-1.3
	c-10-0.2-9.8,15.1,0,14.9c2.4-0.1,5.1-1.8,5.3-3.6l0.1-2.4C145.3,54.3,145.5,54.6,145.3,54.4z"/>
<path class="st1" d="M145.3,54.4c-0.2,0.8-0.2,1.5-0.6,2.3c-0.8,2.1-2.7,3.3-5.1,3.3c-6.7-0.1-7.3-11.2-2-13.3
	c1.5-0.6,3.4-0.5,4.7,0.2c0.7,0.4,1.2,0.7,1.5,1.3c0.9,1.1,0.5,1.5,1,1.8c0-0.4-0.3-2.8-0.5-2.9c-1-0.9-3.1-1.3-4.4-1.3
	c-10-0.2-9.8,15.1,0,14.9c2.4-0.1,5.1-1.8,5.3-3.6l0.1-2.4C145.3,54.3,145.5,54.6,145.3,54.4z"/>
<path class="st0" d="M151.6,46.2c0.6,0.3,1,0.1,1.4,0.8c0.2,0.5,0.1,5.6,0.1,6.3c0,0.9,0.2,5.6-0.2,6.3c-0.3,0.7-0.7,0.4-1.3,0.7
	c0.3,0.3,1.4,0.1,2,0.1h6.3l0.9-3.2c0,0,0,0,0-0.1c-0.6,0.8-0.7,1.9-2.1,2.4c-1,0.4-3.1,0.3-4.3,0.3v-6.1c0.9,0,2,0,2.9,0
	c1.5,0,1.2,0.6,1.5,1.3c0.2-0.3,0.1-2.8,0-3.1v-0.1c-0.2,0.4-0.1,0.8-0.5,1.1c-0.5,0.4-3.1,0.3-4,0.3v-6.3c1.2,0,2.3,0,3.5,0
	c0.8,0,1.4,0.1,1.6,0.9l0.1,0.6c0,0,0,0,0.1,0.1c0.1-0.4,0-2,0-2.5c-3.7,0.6-6,0.1-7.8,0.3l-0.2,0.1
	C151.7,46.1,151.6,46.2,151.6,46.2z"/>
<path class="st1" d="M151.6,46.2c0.6,0.3,1,0.1,1.4,0.8c0.2,0.5,0.1,5.6,0.1,6.3c0,0.9,0.2,5.6-0.2,6.3c-0.3,0.7-0.7,0.4-1.3,0.7
	c0.3,0.3,1.4,0.1,2,0.1h6.3l0.9-3.2c0,0,0,0,0-0.1c-0.6,0.8-0.7,1.9-2.1,2.4c-1,0.4-3.1,0.3-4.3,0.3v-6.1c0.9,0,2,0,2.9,0
	c1.5,0,1.2,0.6,1.5,1.3c0.2-0.3,0.1-2.8,0-3.1v-0.1c-0.2,0.4-0.1,0.8-0.5,1.1c-0.5,0.4-3.1,0.3-4,0.3v-6.3c1.2,0,2.3,0,3.5,0
	c0.8,0,1.4,0.1,1.6,0.9l0.1,0.6c0,0,0,0,0.1,0.1c0.1-0.4,0-2,0-2.5c-3.7,0.6-6,0.1-7.8,0.3l-0.2,0.1
	C151.7,46.1,151.6,46.2,151.6,46.2z"/>
<path class="st0" d="M8.8,46.2c0.6,0.3,1,0.1,1.4,0.8c0.1,0.4,0.1,1.4,0.1,1.9v8.6c0,1.5,0.1,2.7-1.5,2.7h4.3
	c-1.6,0-1.5-1.1-1.5-2.5c0-1.2-0.1-2.8,0-4c0.9-0.2,3.1,0,4.3,0c3.3,0,2.4-0.1,3,1.3c0.1-0.1,0.1,0,0.1-0.4c0-0.1,0-0.3,0-0.4
	c0-0.5,0.1-2-0.1-2.4c-0.2,0.7-0.1,1.1-0.9,1.3c-0.5,0.1-1.5,0-2.1,0c-1.5,0-2.9,0-4.3,0v-6.3c1,0,2.1,0,3.1,0c1.3,0,2-0.1,2,1.2
	c0.3-0.1,0.1,0.3,0.2-0.4v-1.8c-3.3,0.7-5.9,0.1-7.8,0.3L8.8,46.2C8.8,46.1,8.8,46.2,8.8,46.2z"/>
<path class="st1" d="M8.8,46.2c0.6,0.3,1,0.1,1.4,0.8c0.1,0.4,0.1,1.4,0.1,1.9v8.6c0,1.5,0.1,2.7-1.5,2.7h4.3
	c-1.6,0-1.5-1.1-1.5-2.5c0-1.2-0.1-2.8,0-4c0.9-0.2,3.1,0,4.3,0c3.3,0,2.4-0.1,3,1.3c0.1-0.1,0.1,0,0.1-0.4c0-0.1,0-0.3,0-0.4
	c0-0.5,0.1-2-0.1-2.4c-0.2,0.7-0.1,1.1-0.9,1.3c-0.5,0.1-1.5,0-2.1,0c-1.5,0-2.9,0-4.3,0v-6.3c1,0,2.1,0,3.1,0c1.3,0,2-0.1,2,1.2
	c0.3-0.1,0.1,0.3,0.2-0.4v-1.8c-3.3,0.7-5.9,0.1-7.8,0.3L8.8,46.2C8.8,46.1,8.8,46.2,8.8,46.2z"/>
<path class="st0" d="M167.3,56.7c-0.3,0.5-0.3,1.5-0.3,2.2c0,0.8,0.3,1,1,1.3c4.2,1.7,7.1-1.6,5.8-4.7c-0.3-0.9-2.7-3-3.5-3.7
	c-0.2-0.2-0.3-0.4-0.6-0.6c-0.5-0.5-1.3-1-1.4-2.2c-0.1-2.3,2.7-3.2,4-2c0.8,0.7,0.5,0.9,0.8,1.6c0,0,0-0.1,0-0.1l0.1-2.4
	c-1.3-0.1-2.7-0.4-3.8,0c-2.4,0.9-2.7,4.1-1,5.7c0.8,0.9,4,3.5,4.3,4.4c1.3,2.6-1.7,4.8-4,3.5c-1.4-0.8-1.2-2.2-1.4-2.8
	C167.3,56.8,167.3,56.8,167.3,56.7C167.3,56.8,167.3,56.7,167.3,56.7z"/>
<path class="st1" d="M167.3,56.7c-0.3,0.5-0.3,1.5-0.3,2.2c0,0.8,0.3,1,1,1.3c4.2,1.7,7.1-1.6,5.8-4.7c-0.3-0.9-2.7-3-3.5-3.7
	c-0.2-0.2-0.3-0.4-0.6-0.6c-0.5-0.5-1.3-1-1.4-2.2c-0.1-2.3,2.7-3.2,4-2c0.8,0.7,0.5,0.9,0.8,1.6c0,0,0-0.1,0-0.1l0.1-2.4
	c-1.3-0.1-2.7-0.4-3.8,0c-2.4,0.9-2.7,4.1-1,5.7c0.8,0.9,4,3.5,4.3,4.4c1.3,2.6-1.7,4.8-4,3.5c-1.4-0.8-1.2-2.2-1.4-2.8
	C167.3,56.8,167.3,56.8,167.3,56.7C167.3,56.8,167.3,56.7,167.3,56.7z"/>
<path class="st0" d="M28.8,31.1c0.1,0.2,0.1,0.2,0.7,0.2c0.4,0,0.6,0,1,0h4.9c0.5,0,0.7,0.1,0.9-0.2c-0.2-0.5-1.4,0.2-2-1.1
	c-0.4-0.7-0.1-2.1,0-2.9l1-11.6c0.1-1.8,0.2-4,0.5-5.8c0.4,0.3,0.5,0.9,0.7,1.3l6.8,15.3c0.5,0.9,0.9,1.9,1.2,2.8l1,2.1
	c0.1,0.4,0.1,0.5,0.5,0.5c0.1-0.1,0.9-2.6,1-3l8.2-18.9c0.1-0.3,0.2-0.5,0.5-0.7c0.2,3.9,0.6,7.9,1,11.8c0.1,1,0.9,8.2,0.6,8.9
	c-0.1,0.3-0.5,0.7-0.7,0.8c-0.7,0.4-1-0.1-1.2,0.4c0.1,0.2-0.2,0.2,0.9,0.2h7c0.6,0,0.4,0.1,0.5-0.2c-0.1-0.3,0-0.1-0.2-0.2
	c-0.2-0.1-0.7,0-1.5-0.2c-1.9-0.7-1.7-2.6-2-4.6L57.3,2.9c-0.1-0.2-0.1-0.1-0.1-0.2c-0.5,0.2-1.2,2.3-1.5,2.8
	c-1.1,2.5-9.1,20.9-9.4,21.2c-0.4-0.6-1-2.2-1.4-3L35.8,3.2c-0.2-0.5-0.1-0.5-0.6-0.6c-0.1,0.3-0.1,0.4-0.1,0.8l-1.7,14.8
	c-0.2,2.6-0.6,5.2-0.9,7.8c-0.2,1.9-0.1,4.5-2.8,4.8C28.9,30.9,28.9,30.7,28.8,31.1z"/>
<path class="st1" d="M28.8,31.1c0.1,0.2,0.1,0.2,0.7,0.2c0.4,0,0.6,0,1,0h4.9c0.5,0,0.7,0.1,0.9-0.2c-0.2-0.5-1.4,0.2-2-1.1
	c-0.4-0.7-0.1-2.1,0-2.9l1-11.6c0.1-1.8,0.2-4,0.5-5.8c0.4,0.3,0.5,0.9,0.7,1.3l6.8,15.3c0.5,0.9,0.9,1.9,1.2,2.8l1,2.1
	c0.1,0.4,0.1,0.5,0.5,0.5c0.1-0.1,0.9-2.6,1-3l8.2-18.9c0.1-0.3,0.2-0.5,0.5-0.7c0.2,3.9,0.6,7.9,1,11.8c0.1,1,0.9,8.2,0.6,8.9
	c-0.1,0.3-0.5,0.7-0.7,0.8c-0.7,0.4-1-0.1-1.2,0.4c0.1,0.2-0.2,0.2,0.9,0.2h7c0.6,0,0.4,0.1,0.5-0.2c-0.1-0.3,0-0.1-0.2-0.2
	c-0.2-0.1-0.7,0-1.5-0.2c-1.9-0.7-1.7-2.6-2-4.6L57.3,2.9c-0.1-0.2-0.1-0.1-0.1-0.2c-0.5,0.2-1.2,2.3-1.5,2.8
	c-1.1,2.5-9.1,20.9-9.4,21.2c-0.4-0.6-1-2.2-1.4-3L35.8,3.2c-0.2-0.5-0.1-0.5-0.6-0.6c-0.1,0.3-0.1,0.4-0.1,0.8l-1.7,14.8
	c-0.2,2.6-0.6,5.2-0.9,7.8c-0.2,1.9-0.1,4.5-2.8,4.8C28.9,30.9,28.9,30.7,28.8,31.1z"/>
<path class="st0" d="M65,31.1c0.1,0.3,0.2,0.2,0.6,0.2h6.6c0.5-0.1,0.1,0.1,0.4-0.2c-0.4-0.5-1.5,0.1-2-1.1
	c-0.4-0.8,0.4-7.5,0.5-8.6c0.4-3.8,0.6-7.8,1-11.6c0.5,0.7,6.9,15.3,7.5,16.7c0.4,1,0.9,1.9,1.2,2.8c0.2,0.5,0.4,0.9,0.6,1.4
	c0.4,0.8,0.4,1.2,0.7,1.2c0.2-0.1,0.7-2.2,1.1-2.9c0.9-2.3,2.6-6.1,3.6-8.5l4.9-11.3c0.4,2.7,0.9,8.9,1.1,11.9
	c0.1,1.1,0.9,8.1,0.6,8.8c-0.5,1.4-1.9,0.7-2,1.2c0.1,0.3,0.4,0.2,0.7,0.2h7.3c0.5,0,0.2,0.1,0.4-0.2c-0.2-0.6-1.6,0.3-3-1.4
	c-0.6-0.8-0.6-2.4-0.7-3.6L93.7,4.6c0-0.5,0-1.5-0.2-1.9c-0.5,0.1-0.4,0.1-0.9,1.3c-2.8,6.4-5.7,13.4-8.7,19.7c-0.4,0.8-1,2.4-1.4,3
	l-0.4-0.7c-0.1-0.3-0.2-0.5-0.4-0.8c-0.2-0.5-0.5-1-0.6-1.5L77,14.5c-0.9-2-1.7-4.1-2.7-6.1l-2-4.5c-0.2-0.4-0.4-1.3-1-1.2
	c-0.2,1.2-2.3,21.3-2.6,23.5c-0.2,1.9-0.1,3.8-2.1,4.5C65.5,31.1,65.1,30.5,65,31.1z"/>
<path class="st1" d="M65,31.1c0.1,0.3,0.2,0.2,0.6,0.2h6.6c0.5-0.1,0.1,0.1,0.4-0.2c-0.4-0.5-1.5,0.1-2-1.1
	c-0.4-0.8,0.4-7.5,0.5-8.6c0.4-3.8,0.6-7.8,1-11.6c0.5,0.7,6.9,15.3,7.5,16.7c0.4,1,0.9,1.9,1.2,2.8c0.2,0.5,0.4,0.9,0.6,1.4
	c0.4,0.8,0.4,1.2,0.7,1.2c0.2-0.1,0.7-2.2,1.1-2.9c0.9-2.3,2.6-6.1,3.6-8.5l4.9-11.3c0.4,2.7,0.9,8.9,1.1,11.9
	c0.1,1.1,0.9,8.1,0.6,8.8c-0.5,1.4-1.9,0.7-2,1.2c0.1,0.3,0.4,0.2,0.7,0.2h7.3c0.5,0,0.2,0.1,0.4-0.2c-0.2-0.6-1.6,0.3-3-1.4
	c-0.6-0.8-0.6-2.4-0.7-3.6L93.7,4.6c0-0.5,0-1.5-0.2-1.9c-0.5,0.1-0.4,0.1-0.9,1.3c-2.8,6.4-5.7,13.4-8.7,19.7c-0.4,0.8-1,2.4-1.4,3
	l-0.4-0.7c-0.1-0.3-0.2-0.5-0.4-0.8c-0.2-0.5-0.5-1-0.6-1.5L77,14.5c-0.9-2-1.7-4.1-2.7-6.1l-2-4.5c-0.2-0.4-0.4-1.3-1-1.2
	c-0.2,1.2-2.3,21.3-2.6,23.5c-0.2,1.9-0.1,3.8-2.1,4.5C65.5,31.1,65.1,30.5,65,31.1z"/>
<path class="st0" d="M5.2,2.1C5.7,2.4,9.6-0.1,13,4.2c0.5,0.5,0.4,0.5,0.1,1.1c-1.2,3.1-2.5,6.1-3.7,9.2c-1.2,3.1-2.5,6.1-3.7,9.2
	c-0.6,1.5-1.2,3.1-1.9,4.6c-0.6,1.4-1.6,2.3-3.1,2.4c-0.6,0.1-0.5-0.1-0.6,0.3c0.1,0.3,1,0.2,1.9,0.2H7c0.5,0,0.7,0.1,0.9-0.2
	c-0.1-0.5-0.5,0-1.2-0.5c-1.5-1-0.4-2.7,0.1-4c0.6-1.8,1.4-3.6,2-5.4h10.6c1.6,5,3.1,9.4,5.7,13.2c2.7,4.1,6.6,6.5,11.4,5.1
	c0.5-0.1,0.7-0.1,0.7-0.5c-0.5-0.3-3.3,0.9-6.7-2c-4.8-4.3-6.8-11.8-9-18c-1.5-4.3-2.8-9.3-4.8-13.2c-1.7-3.5-4.3-5.6-8.3-5
	c-0.5,0.1-2.6,0.6-3,0.9C5.1,1.9,5.2,1.6,5.2,2.1z M9.3,19.9c1.2-3.7,3-8,4.4-11.8c0.1-0.4,0.5-1.4,0.7-1.7c0.4,1,0.9,2.1,1.2,3.3
	c0.4,1.2,0.7,2.2,1.1,3.4L19,20L9.3,19.9z"/>
<path class="st1" d="M5.2,2.1C5.7,2.4,9.6-0.1,13,4.2c0.5,0.5,0.4,0.5,0.1,1.1c-1.2,3.1-2.5,6.1-3.7,9.2c-1.2,3.1-2.5,6.1-3.7,9.2
	c-0.6,1.5-1.2,3.1-1.9,4.6c-0.6,1.4-1.6,2.3-3.1,2.4c-0.6,0.1-0.5-0.1-0.6,0.3c0.1,0.3,1,0.2,1.9,0.2H7c0.5,0,0.7,0.1,0.9-0.2
	c-0.1-0.5-0.5,0-1.2-0.5c-1.5-1-0.4-2.7,0.1-4c0.6-1.8,1.4-3.6,2-5.4h10.6c1.6,5,3.1,9.4,5.7,13.2c2.7,4.1,6.6,6.5,11.4,5.1
	c0.5-0.1,0.7-0.1,0.7-0.5c-0.5-0.3-3.3,0.9-6.7-2c-4.8-4.3-6.8-11.8-9-18c-1.5-4.3-2.8-9.3-4.8-13.2c-1.7-3.5-4.3-5.6-8.3-5
	c-0.5,0.1-2.6,0.6-3,0.9C5.1,1.9,5.2,1.6,5.2,2.1z M9.3,19.9c1.2-3.7,3-8,4.4-11.8c0.1-0.4,0.5-1.4,0.7-1.7c0.4,1,0.9,2.1,1.2,3.3
	c0.4,1.2,0.7,2.2,1.1,3.4L19,20L9.3,19.9z"/>
<path class="st0" d="M130.5,3.3c0.2,0.4-0.2,0.2,0.5,0.3c0.2,0,0.4,0,0.7,0.1c1.1,0.3,1.9,1.4,1.9,2.7V28c0,1.7-1,2.6-2.5,2.8
	c-0.5,0-0.4-0.1-0.6,0.2c0.2,0.3-0.1,0.1,0.4,0.2c0.1,0,0.5,0,0.6,0c1.2,0,7.2,0.1,7.5-0.1c0-0.8-1.2,0.2-2.3-1.2
	c-0.6-0.8-0.6-1.9-0.6-3.1V4.5c3.1,0,6.2-0.5,8,1.5c2.3,2.5,2.8,10.1-3.3,11c-0.9,0.2-2.8,0-3.3,0.2c0,0.9,0.4-0.3,2.2,1.6
	c0.7,0.7,1.2,1.4,1.9,2.2c0.5,0.9,4.3,6.5,4.8,7.1c1.4,1.5,2.8,2.6,4.9,3c0.6,0.1,3.3,0.3,3.7,0.1c0-0.7-0.7-0.1-2.2-0.9
	c-0.9-0.4-1.4-0.8-1.9-1.3c-1.1-1-2-2.1-3-3.4c-1.4-1.9-3.5-5.4-5.2-6.7c0,0-0.1-0.2-0.2-0.2l-0.1-0.2c0,0-0.1,0-0.1-0.1
	c5.8-0.5,8-8,5.2-12.2c-2.5-3.6-7.4-2.9-12-2.9L130.5,3.3z"/>
<path class="st1" d="M130.5,3.3c0.2,0.4-0.2,0.2,0.5,0.3c0.2,0,0.4,0,0.7,0.1c1.1,0.3,1.9,1.4,1.9,2.7V28c0,1.7-1,2.6-2.5,2.8
	c-0.5,0-0.4-0.1-0.6,0.2c0.2,0.3-0.1,0.1,0.4,0.2c0.1,0,0.5,0,0.6,0c1.2,0,7.2,0.1,7.5-0.1c0-0.8-1.2,0.2-2.3-1.2
	c-0.6-0.8-0.6-1.9-0.6-3.1V4.5c3.1,0,6.2-0.5,8,1.5c2.3,2.5,2.8,10.1-3.3,11c-0.9,0.2-2.8,0-3.3,0.2c0,0.9,0.4-0.3,2.2,1.6
	c0.7,0.7,1.2,1.4,1.9,2.2c0.5,0.9,4.3,6.5,4.8,7.1c1.4,1.5,2.8,2.6,4.9,3c0.6,0.1,3.3,0.3,3.7,0.1c0-0.7-0.7-0.1-2.2-0.9
	c-0.9-0.4-1.4-0.8-1.9-1.3c-1.1-1-2-2.1-3-3.4c-1.4-1.9-3.5-5.4-5.2-6.7c0,0-0.1-0.2-0.2-0.2l-0.1-0.2c0,0-0.1,0-0.1-0.1
	c5.8-0.5,8-8,5.2-12.2c-2.5-3.6-7.4-2.9-12-2.9L130.5,3.3z"/>
<path class="st0" d="M100.1,31.1c0.2,0.3,0,0.1,0.4,0.2h6.7c0.5,0,0.7,0.2,0.9-0.2c0-0.4-1.7,0-2-1.5c-0.1-0.9,0.5-2.1,0.7-2.8
	c0.6-1.8,1.4-3.5,2-5.2h10.5c0.6,1.7,1.2,3.4,1.9,5.2c0.2,0.7,0.9,2,0.7,2.8c-0.1,0.5-0.4,0.9-0.7,1.1c-0.1,0.1-0.4,0.2-0.6,0.2
	c-0.5,0.1-0.5-0.1-0.6,0.2c0.1,0.4,1.1,0.2,2,0.2h6.4c0.5,0,0.2,0.1,0.4-0.2c-0.1-0.4,0-0.1-1-0.3c-2.5-0.5-3.1-3.3-4-5.4l-8.4-20.9
	c-0.2-0.5-0.5-1.6-0.9-1.9c-0.4,0.2-0.1-0.1-0.5,1c-0.1,0.3-0.2,0.7-0.4,1c-0.1,0.6-0.5,1.3-0.7,1.9l-4.6,11.4
	c-0.7,1.5-4.1,10.3-4.7,11.2c-0.4,0.5-0.9,1-1.4,1.3c-0.2,0.2-0.6,0.3-0.9,0.4C100.4,31,100.5,30.6,100.1,31.1z M114.1,7.5
	c0.2,0.3,4.3,11.6,4.7,12.8l-9.5,0L114.1,7.5z"/>
<path class="st1" d="M100.1,31.1c0.2,0.3,0,0.1,0.4,0.2h6.7c0.5,0,0.7,0.2,0.9-0.2c0-0.4-1.7,0-2-1.5c-0.1-0.9,0.5-2.1,0.7-2.8
	c0.6-1.8,1.4-3.5,2-5.2h10.5c0.6,1.7,1.2,3.4,1.9,5.2c0.2,0.7,0.9,2,0.7,2.8c-0.1,0.5-0.4,0.9-0.7,1.1c-0.1,0.1-0.4,0.2-0.6,0.2
	c-0.5,0.1-0.5-0.1-0.6,0.2c0.1,0.4,1.1,0.2,2,0.2h6.4c0.5,0,0.2,0.1,0.4-0.2c-0.1-0.4,0-0.1-1-0.3c-2.5-0.5-3.1-3.3-4-5.4l-8.4-20.9
	c-0.2-0.5-0.5-1.6-0.9-1.9c-0.4,0.2-0.1-0.1-0.5,1c-0.1,0.3-0.2,0.7-0.4,1c-0.1,0.6-0.5,1.3-0.7,1.9l-4.6,11.4
	c-0.7,1.5-4.1,10.3-4.7,11.2c-0.4,0.5-0.9,1-1.4,1.3c-0.2,0.2-0.6,0.3-0.9,0.4C100.4,31,100.5,30.6,100.1,31.1z M114.1,7.5
	c0.2,0.3,4.3,11.6,4.7,12.8l-9.5,0L114.1,7.5z"/>
<path class="st0" d="M164.9,24c-0.2,0.2-0.1,0-0.2,0.3c-0.2,0.6-0.5,2.9-0.5,3.6c0,1.6,0,2,1.9,2.8c4.3,2,10.8,1.5,12-4.6
	c1.1-5.4-2.2-7-4.4-9.3c-0.5-0.5-0.6-0.7-1.1-1.1l-2.3-2.3c-1.4-1.2-2.7-2.3-3-4.1c-0.5-2.9,1.5-5.2,4-5.5c2-0.2,4,0.5,4.7,2.2
	c0.5,1.2,0.2,1.7,0.6,1.8c0.4-0.1,0.1-1.4,0.1-2.3c0-0.8,0.1-1.8,0-2.6c-2.6,0-5.2-0.8-7.5,0.1c-4.7,1.8-5.3,8.1-2.2,11.1l4.4,4.2
	c0.4,0.4,0.7,0.6,1.1,1c0.7,0.7,2.7,2.6,3.1,3.3c1.2,2.4,0.2,5.3-1.2,6.4c-1.6,1.3-4.2,2-6.4,0.7c-1.5-0.8-2.3-2.2-2.6-3.9
	c0-0.3-0.1-0.7-0.1-1C165,24.6,165.1,24.3,164.9,24z"/>
<path class="st1" d="M164.9,24c-0.2,0.2-0.1,0-0.2,0.3c-0.2,0.6-0.5,2.9-0.5,3.6c0,1.6,0,2,1.9,2.8c4.3,2,10.8,1.5,12-4.6
	c1.1-5.4-2.2-7-4.4-9.3c-0.5-0.5-0.6-0.7-1.1-1.1l-2.3-2.3c-1.4-1.2-2.7-2.3-3-4.1c-0.5-2.9,1.5-5.2,4-5.5c2-0.2,4,0.5,4.7,2.2
	c0.5,1.2,0.2,1.7,0.6,1.8c0.4-0.1,0.1-1.4,0.1-2.3c0-0.8,0.1-1.8,0-2.6c-2.6,0-5.2-0.8-7.5,0.1c-4.7,1.8-5.3,8.1-2.2,11.1l4.4,4.2
	c0.4,0.4,0.7,0.6,1.1,1c0.7,0.7,2.7,2.6,3.1,3.3c1.2,2.4,0.2,5.3-1.2,6.4c-1.6,1.3-4.2,2-6.4,0.7c-1.5-0.8-2.3-2.2-2.6-3.9
	c0-0.3-0.1-0.7-0.1-1C165,24.6,165.1,24.3,164.9,24z"/>
<path class="st0" d="M156.3,7.1c0.5,0.5,2.8-0.4,3.6-2.4c0.6-1.7,0.1-4.1-1.2-4.6c-1-0.3-1.7,0.2-2,0.9c-0.6,1.7,2.2,2.4,1.2,4.6
	c-0.1,0.3-0.5,0.7-0.6,0.9C156.6,6.9,156.5,6.6,156.3,7.1z"/>
<path class="st1" d="M156.3,7.1c0.5,0.5,2.8-0.4,3.6-2.4c0.6-1.7,0.1-4.1-1.2-4.6c-1-0.3-1.7,0.2-2,0.9c-0.6,1.7,2.2,2.4,1.2,4.6
	c-0.1,0.3-0.5,0.7-0.6,0.9C156.6,6.9,156.5,6.6,156.3,7.1z"/>
</svg>
